<?xml version="1.0" encoding="UTF-8" standalone="no"?>
<!-- Created with Inkscape (http://www.inkscape.org/) -->

<svg
   xmlns:dc="http://purl.org/dc/elements/1.1/"
   xmlns:cc="http://creativecommons.org/ns#"
   xmlns:rdf="http://www.w3.org/1999/02/22-rdf-syntax-ns#"
   xmlns:svg="http://www.w3.org/2000/svg"
   xmlns="http://www.w3.org/2000/svg"
   xmlns:sodipodi="http://sodipodi.sourceforge.net/DTD/sodipodi-0.dtd"
   xmlns:inkscape="http://www.inkscape.org/namespaces/inkscape"
   id="svg2"
   version="1.1"
   inkscape:version="0.91 r13725"
   xml:space="preserve"
   width="700"
   height="700"
   viewBox="0 0 700.00003 700"
   sodipodi:docname="chemistry.svg"><metadata
     id="metadata8"><rdf:RDF><cc:Work
         rdf:about=""><dc:format>image/svg+xml</dc:format><dc:type
           rdf:resource="http://purl.org/dc/dcmitype/StillImage" /><dc:title /></cc:Work></rdf:RDF></metadata><defs
     id="defs6" /><sodipodi:namedview
     pagecolor="#ffffff"
     bordercolor="#666666"
     borderopacity="1"
     objecttolerance="10"
     gridtolerance="10"
     guidetolerance="10"
     inkscape:pageopacity="0"
     inkscape:pageshadow="2"
     inkscape:window-width="1366"
     inkscape:window-height="708"
     id="namedview4"
     showgrid="false"
     inkscape:zoom="0.70094161"
     inkscape:cx="93.600672"
     inkscape:cy="439.61512"
     inkscape:window-x="0"
     inkscape:window-y="0"
     inkscape:window-maximized="1"
     inkscape:current-layer="layer1" /><g
     inkscape:groupmode="layer"
     id="layer1"
     inkscape:label="mapa 1"
     transform="translate(0,-92.599976)"><circle
       style="opacity:1;fill:#f2f2f2;fill-opacity:1;stroke:#c8c8c8;stroke-width:4.5956707;stroke-miterlimit:4;stroke-dasharray:none;stroke-opacity:0"
       id="path5486"
       cx="375.17352"
       cy="457.64508"
       r="294.31558" /><path
       d="m 341.27178,387.95319 c 0.0415,0 -0.24319,2.28425 7.28148,9.80712 l 0.65032,0.65033 0,82.36248 -72.07978,123.70766 c -0.0307,0.0415 -3.78125,5.33771 -3.78125,13.62801 0,8.73885 8.97664,12.71827 17.31737,12.71827 l 174.80411,0 c 8.34254,0 17.31918,-3.97942 17.31918,-12.71827 0,-8.37317 -3.74521,-13.57937 -3.78305,-13.62801 l -0.12971,-0.20176 -71.95007,-123.5059 0,-82.36248 0.64852,-0.65033 c 7.66158,-7.65979 7.22923,-9.88819 7.22383,-9.908 -0.0116,0.036 -0.47198,-0.16753 -1.43036,-0.16753 -0.30444,0 -0.55305,0.0199 -0.70797,0.036 l -0.39271,0.0433 -0.38732,-0.099 c -0.43955,-0.11169 -1.2484,-0.24679 -2.5977,-0.24679 -2.06806,0 -4.07489,0.30984 -4.09469,0.31345 l -0.34409,0.0271 -53.8923,-0.0271 c -0.0216,-0.003 -2.03024,-0.31345 -4.0947,-0.31345 -1.3529,0 -2.15995,0.13504 -2.5995,0.24679 l -0.38552,0.099 -0.39451,-0.0433 c -0.15312,-0.0161 -0.40533,-0.036 -0.70617,-0.036 -0.95477,0 -1.40514,0.19635 -1.49341,0.26841 z m 124.19225,247.31624 -174.80411,0 c -12.60838,0 -21.75976,-7.215 -21.75976,-17.16064 0,-9.22345 3.93257,-15.24211 4.56308,-16.15004 l 71.29796,-122.38359 0,-79.33065 c -6.49424,-6.61674 -8.82352,-10.97626 -7.53909,-14.07476 0.45397,-1.09348 1.77444,-2.92736 5.54308,-2.92736 0.29363,0 0.55845,0.01 0.77823,0.0269 0.92594,-0.19636 2.03564,-0.29184 3.30747,-0.29184 2.06085,0 4.00643,0.2522 4.60091,0.33867 l 53.22216,0 c 0.59448,-0.0864 2.54186,-0.33867 4.60271,-0.33867 1.27003,0 2.37973,0.0954 3.30567,0.29184 0.22158,-0.0161 0.4846,-0.0269 0.78003,-0.0269 3.76684,0 5.08911,1.83388 5.54128,2.92736 1.28443,3.0985 -1.04485,7.45802 -7.53909,14.07476 l 0,79.33065 71.29435,122.38359 c 0.63412,0.90793 4.56669,6.92659 4.56669,16.15004 0,9.94564 -9.15318,17.16064 -21.76157,17.16064"
       style="fill:#2e445d;fill-opacity:1;fill-rule:nonzero;stroke:none"
       id="path5928"
       inkscape:connector-curvature="0" /><path
       d="m 332.19785,527.15696 -44.03294,73.03457 c 0,0 -4.78647,8.90998 -2.52564,15.42584 2.26083,6.51767 3.72361,10.63921 23.94312,10.63921 20.21773,0 144.99546,0 144.99546,0 0,0 13.30374,0.40389 15.82938,-10.10958 2.52743,-10.50788 -1.46459,-15.56096 -9.44503,-28.06845 -7.98225,-12.4985 -34.3213,-55.60189 -34.3213,-55.60189 0,0 -11.04112,6.25285 -21.5472,6.12134 -10.50969,-0.13504 -26.8723,2.52924 -36.31732,-0.66834 -9.44322,-3.19217 -32.85672,-15.16464 -36.57853,-10.7727"
       style="fill:#1d3557;fill-opacity:1;fill-rule:nonzero;stroke:none"
       id="path5930"
       inkscape:connector-curvature="0" /><path
       d="m 403.05445,508.01471 c 0,-8.40199 -6.81129,-15.20968 -15.20787,-15.20968 -8.40018,0 -15.20788,6.80769 -15.20788,15.20968 0,8.39838 6.8077,15.20608 15.20788,15.20608 8.39658,0 15.20787,-6.8077 15.20787,-15.20608"
       style="fill:#ffffff;fill-opacity:1;fill-rule:nonzero;stroke:none"
       id="path5932"
       inkscape:connector-curvature="0" /><path
       d="m 398.11666,508.56956 c -0.30623,0 -0.55484,-0.2504 -0.55484,-0.55485 0,-5.35932 -4.35952,-9.72065 -9.71524,-9.72065 -0.30805,0 -0.55485,-0.24679 -0.55485,-0.55484 0,-0.30625 0.2468,-0.55485 0.55485,-0.55485 5.97001,0 10.82493,4.85852 10.82493,10.83034 0,0.30445 -0.2486,0.55485 -0.55485,0.55485"
       style="fill:#1d3557;fill-opacity:1;fill-rule:nonzero;stroke:none"
       id="path5938"
       inkscape:connector-curvature="0" /><path
       d="m 377.31527,530.49866 c 0,-6.05289 -4.90716,-10.96185 -10.96004,-10.96185 -6.05649,0 -10.96365,4.90896 -10.96365,10.96185 0,6.05829 4.90716,10.96365 10.96365,10.96365 6.05288,0 10.96004,-4.90536 10.96004,-10.96365"
       style="fill:#ffffff;fill-opacity:1;fill-rule:nonzero;stroke:none"
       id="path5940"
       inkscape:connector-curvature="0" /><path
       d="m 373.75921,531.05531 c -0.30625,0 -0.55485,-0.2504 -0.55485,-0.55665 0,-3.77585 -3.07329,-6.84733 -6.84913,-6.84733 -0.30625,0 -0.55484,-0.25039 -0.55484,-0.55664 0,-0.30625 0.24859,-0.55485 0.55484,-0.55485 4.39014,0 7.95883,3.57408 7.95883,7.95882 0,0.30625 -0.2486,0.55665 -0.55485,0.55665"
       style="fill:#1d3557;fill-opacity:1;fill-rule:nonzero;stroke:none"
       id="path5946"
       inkscape:connector-curvature="0" /><path
       d="m 394.01476,549.05004 c 0,-5.71061 -4.63335,-10.34396 -10.34396,-10.34396 -5.7142,0 -10.34755,4.63335 -10.34755,10.34396 0,5.71421 4.63335,10.34575 10.34755,10.34575 5.71061,0 10.34396,-4.63154 10.34396,-10.34575"
       style="fill:#ffffff;fill-opacity:1;fill-rule:nonzero;stroke:none"
       id="path5948"
       inkscape:connector-curvature="0" /><path
       d="m 390.65865,549.60848 c -0.30985,0 -0.55665,-0.25039 -0.55665,-0.55844 0,-3.54346 -2.88413,-6.42939 -6.4312,-6.42939 -0.30624,0 -0.55664,-0.24861 -0.55664,-0.55485 0,-0.30805 0.2504,-0.55484 0.55664,-0.55484 4.15776,0 7.5427,3.38312 7.5427,7.53908 0,0.30805 -0.2486,0.55844 -0.55485,0.55844"
       style="fill:#1d3557;fill-opacity:1;fill-rule:nonzero;stroke:none"
       id="path5954"
       inkscape:connector-curvature="0" /><path
       d="m 369.19973,562.27091 c 0,-3.57769 -2.90215,-6.48344 -6.47803,-6.48344 -3.58129,0 -6.48164,2.90575 -6.48164,6.48344 0,3.57589 2.90035,6.47803 6.48164,6.47803 3.57588,0 6.47803,-2.90214 6.47803,-6.47803"
       style="fill:#ffffff;fill-opacity:1;fill-rule:nonzero;stroke:none"
       id="path5956"
       inkscape:connector-curvature="0" /><path
       d="m 367.09743,562.82576 c -0.30805,0 -0.55665,-0.2486 -0.55665,-0.55485 0,-2.1059 -1.71318,-3.82088 -3.81908,-3.82088 -0.30986,0 -0.55666,-0.24861 -0.55666,-0.55666 0,-0.30805 0.2468,-0.55305 0.55666,-0.55305 2.7202,0 4.93058,2.2122 4.93058,4.93059 0,0.30625 -0.2486,0.55485 -0.55485,0.55485"
       style="fill:#1d3557;fill-opacity:1;fill-rule:nonzero;stroke:none"
       id="path5962"
       inkscape:connector-curvature="0" /><path
       d="m 403.73901,325.12207 c 0,-7.91739 -6.41678,-14.33958 -14.33778,-14.33958 -7.91919,0 -14.33957,6.42219 -14.33957,14.33958 0,7.9228 6.42038,14.33958 14.33957,14.33958 7.921,0 14.33778,-6.41678 14.33778,-14.33958"
       style="fill:#1d3557;fill-opacity:1;fill-rule:nonzero;stroke:none"
       id="path6056"
       inkscape:connector-curvature="0" /><path
       d="m 348.4866,269.37426 c 2.41395,13.95947 15.68887,23.31623 29.65014,20.90049 13.95767,-2.41576 23.31622,-15.68889 20.90047,-29.64836 -2.41395,-13.96126 -15.69066,-23.31982 -29.65013,-20.90227 -13.96127,2.41575 -23.31802,15.68887 -20.90048,29.65014"
       style="fill:#1d3557;fill-opacity:1;fill-rule:nonzero;stroke:none"
       id="path6066"
       inkscape:connector-curvature="0" /><path
       d="m 393.79498,264.99672 c 0,0 0.0449,-0.4954 0.10088,-1.35469 0.0307,-0.43235 0.0307,-0.95657 -0.0216,-1.57087 -0.0252,-0.6125 -0.0522,-1.31866 -0.22158,-2.05546 -0.11,-0.7512 -0.30445,-1.55285 -0.59088,-2.37792 -0.22158,-0.84848 -0.64672,-1.67355 -1.02683,-2.55266 -0.48639,-0.81786 -0.91153,-1.7276 -1.54564,-2.51483 -0.56386,-0.83588 -1.27724,-1.57627 -1.95639,-2.34189 -0.76741,-0.68275 -1.50241,-1.39252 -2.34369,-1.95818 -0.78003,-0.63951 -1.69336,-1.05925 -2.51123,-1.54565 -0.88451,-0.38191 -1.70777,-0.80345 -2.55626,-1.02503 -0.82506,-0.29003 -1.62491,-0.48279 -2.37971,-0.59087 -0.7386,-0.17114 -1.43216,-0.19636 -2.04466,-0.22339 -0.60709,-0.0504 -1.13851,-0.0541 -1.57267,-0.0161 -0.8755,0.0468 -1.36189,0.10088 -1.36189,0.10088 0,0 0.49359,0.10088 1.33667,0.23419 0.85029,0.099 2.03744,0.41974 3.40656,0.86469 0.68995,0.20537 1.41413,0.49 2.15634,0.83047 0.77102,0.28284 1.4916,0.77282 2.28964,1.15654 0.7386,0.4936 1.52763,0.95477 2.24461,1.54744 0.76021,0.53323 1.42495,1.20698 2.12032,1.83749 0.63411,0.69897 1.30785,1.3601 1.84469,2.12211 0.58907,0.71698 1.05384,1.50782 1.54564,2.24282 0.38191,0.79983 0.8737,1.52042 1.15654,2.28965 0.33867,0.74759 0.6251,1.46998 0.83227,2.16174 0.44316,1.3655 0.75841,2.52924 0.86469,3.39934 0.13331,0.8539 0.2342,1.34028 0.2342,1.34028"
       style="fill:#ececec;fill-opacity:1;fill-rule:nonzero;stroke:none"
       id="path6068"
       inkscape:connector-curvature="0" /></g></svg>