<?xml version="1.0" encoding="UTF-8" standalone="no"?>
<!-- Created with Inkscape (http://www.inkscape.org/) -->

<svg
   xmlns:dc="http://purl.org/dc/elements/1.1/"
   xmlns:cc="http://creativecommons.org/ns#"
   xmlns:rdf="http://www.w3.org/1999/02/22-rdf-syntax-ns#"
   xmlns:svg="http://www.w3.org/2000/svg"
   xmlns="http://www.w3.org/2000/svg"
   xmlns:sodipodi="http://sodipodi.sourceforge.net/DTD/sodipodi-0.dtd"
   xmlns:inkscape="http://www.inkscape.org/namespaces/inkscape"
   width="500"
   height="500"
   viewBox="0 0 500.00001 500.00001"
   id="svg4456"
   version="1.1"
   inkscape:version="0.91 r13725"
   sodipodi:docname="child.svg">
  <defs
     id="defs4458" />
  <sodipodi:namedview
     id="base"
     pagecolor="#ffffff"
     bordercolor="#666666"
     borderopacity="1.0"
     inkscape:pageopacity="0.0"
     inkscape:pageshadow="2"
     inkscape:zoom="0.7"
     inkscape:cx="78.4668"
     inkscape:cy="301.74754"
     inkscape:document-units="px"
     inkscape:current-layer="layer1"
     showgrid="false"
     units="px"
     inkscape:window-width="1366"
     inkscape:window-height="708"
     inkscape:window-x="0"
     inkscape:window-y="0"
     inkscape:window-maximized="1" />
  <metadata
     id="metadata4461">
    <rdf:RDF>
      <cc:Work
         rdf:about="">
        <dc:format>image/svg+xml</dc:format>
        <dc:type
           rdf:resource="http://purl.org/dc/dcmitype/StillImage" />
        <dc:title></dc:title>
      </cc:Work>
    </rdf:RDF>
  </metadata>
  <g
     inkscape:label="Layer 1"
     inkscape:groupmode="layer"
     id="layer1"
     transform="translate(0,-552.36216)">
    <circle
       style="opacity:1;fill:#e6e6e6;fill-opacity:1;stroke:#c8c8c8;stroke-width:15.50300312;stroke-miterlimit:4;stroke-dasharray:none;stroke-opacity:0"
       id="path4206"
       cx="252.85716"
       cy="802.36212"
       r="244.04311" />
  </g>
  <g
     inkscape:groupmode="layer"
     id="layer3"
     inkscape:label="teen" />
  <g
     inkscape:groupmode="layer"
     id="layer2"
     inkscape:label="Layer 2">
    <g
       transform="matrix(0.4865509,0,0,0.4865509,136.4097,129.26685)"
       id="g3"
       style="fill:#26486e;fill-opacity:1">
      <g
         id="Layer_2_28_"
         style="fill:#26486e;fill-opacity:1">
        <g
           id="g6"
           style="fill:#26486e;fill-opacity:1">
          <path
             inkscape:connector-curvature="0"
             d="m 330.002,338.358 c -7.047,0 -28.18,0.055 -32.846,0.066 -0.088,-0.002 -0.173,-0.013 -0.261,-0.013 -0.099,0 -0.192,0.013 -0.289,0.015 -0.242,0 -0.384,0.002 -0.384,0.002 l -0.033,0.02 c -3.419,0.229 -6.387,2.086 -8.135,4.812 l -0.02,0.012 c 0,0 -0.115,0.199 -0.324,0.555 -0.02,0.033 -0.039,0.064 -0.057,0.098 -3.846,6.553 -35.941,60.621 -48.322,60.979 -12.381,-0.358 -44.477,-54.427 -48.322,-60.979 -0.018,-0.033 -0.039,-0.064 -0.057,-0.098 -0.209,-0.355 -0.324,-0.555 -0.324,-0.555 l -0.02,-0.012 c -1.747,-2.727 -4.714,-4.584 -8.134,-4.812 l -0.034,-0.02 c 0,0 -0.141,0 -0.383,-0.002 -0.097,-0.002 -0.191,-0.015 -0.289,-0.015 -0.088,0 -0.173,0.011 -0.261,0.013 -4.666,-0.012 -25.798,-0.066 -32.846,-0.066 -31.806,0 -74.397,28.963 -74.397,65.875 0,36.912 0,59.06 0,59.06 l 164.928,0 0.14,0 0.14,0 164.926,0 c 0,0 0,-22.147 0,-59.06 0,-36.913 -42.59,-65.875 -74.396,-65.875 z"
             id="path12"
             style="fill:#26486e;fill-opacity:1" />
          <path
             inkscape:connector-curvature="0"
             d="m 478.363,272.241 c -0.005,-0.087 -0.016,-0.167 -0.03,-0.234 -11.267,-49.341 14.408,-110.604 -25.5,-159.22 -35.897,-43.727 -66.238,2.089 -75.176,-0.598 -9.506,-22 -23.769,-42.078 -41.693,-58.29 -27.473,-24.845 -61.786,-38.527 -96.622,-38.527 -0.003,0 -0.006,0 -0.009,0 -0.003,0 -0.006,0 -0.009,0 -34.835,0 -69.149,13.683 -96.622,38.527 -17.925,16.211 -32.187,36.29 -41.693,58.29 -8.938,2.688 -39.279,-43.129 -75.176,0.598 -39.908,48.616 -14.233,109.878 -25.5,159.219 -0.016,0.069 -0.025,0.148 -0.03,0.235 C 0.112,273.06 0,273.909 0,274.787 c 0,5.885 4.556,10.696 10.331,11.125 0.001,0 0.001,0 0.001,0 0.009,0 0.017,0 0.025,0.001 0.268,0.02 0.536,0.041 0.809,0.041 0.016,0 0.031,-0.002 0.047,-0.002 60.234,3.355 85.866,-25.255 92.845,-45.862 0.255,0.021 0.505,0.048 0.761,0.063 12.774,22.527 31.501,43.003 53.274,58.139 25.348,17.621 53.335,27.135 81.099,27.656 l 0,0.011 c 0.047,-10e-4 0.093,-0.004 0.14,-0.005 0.047,10e-4 0.093,0.004 0.14,0.005 l 0,-0.011 c 27.762,-0.521 55.75,-10.035 81.099,-27.656 21.772,-15.136 40.5,-35.611 53.273,-58.139 0.256,-0.016 0.506,-0.045 0.762,-0.063 6.979,20.607 32.609,49.218 92.845,45.862 0.016,0 0.031,0.002 0.047,0.002 0.272,0 0.541,-0.021 0.809,-0.041 0.009,0 0.018,0 0.025,-0.001 0,0 0.001,0 0.002,0 5.775,-0.429 10.331,-5.24 10.331,-11.125 10e-4,-0.877 -0.11,-1.727 -0.302,-2.546 z M 370.521,219.809 c -0.354,0 -0.88,-0.042 -1.438,-0.086 l -7.278,-0.551 -3.103,6.019 c -19.683,38.176 -65.258,79.219 -119.37,80.339 -54.112,-1.12 -99.688,-42.163 -119.37,-80.339 l -3.103,-6.02 -7.278,0.551 c -0.558,0.044 -1.084,0.086 -1.438,0.086 -15.638,0 -23.567,-10.413 -23.567,-30.948 0,-6.951 1.391,-29.991 19.281,-34.619 0,0 70.11,1.535 124.155,-14.718 11.32,-3.404 15.32,-2.071 24.816,0.611 53.845,15.205 121.978,14.107 121.978,14.107 17.892,4.627 19.281,27.667 19.281,34.619 0.002,20.537 -7.927,30.949 -23.566,30.949 z"
             id="path14"
             style="fill:#26486e;fill-opacity:1" />
        </g>
      </g>
    </g>
  </g>
</svg>
