<?xml version="1.0" encoding="UTF-8" standalone="no"?>
<!-- Created with Inkscape (http://www.inkscape.org/) -->

<svg
   xmlns:dc="http://purl.org/dc/elements/1.1/"
   xmlns:cc="http://creativecommons.org/ns#"
   xmlns:rdf="http://www.w3.org/1999/02/22-rdf-syntax-ns#"
   xmlns:svg="http://www.w3.org/2000/svg"
   xmlns="http://www.w3.org/2000/svg"
   xmlns:sodipodi="http://sodipodi.sourceforge.net/DTD/sodipodi-0.dtd"
   xmlns:inkscape="http://www.inkscape.org/namespaces/inkscape"
   width="500"
   height="500"
   viewBox="0 0 500.00001 500.00001"
   id="svg4822"
   version="1.1"
   inkscape:version="0.91 r13725"
   sodipodi:docname="convenience.svg">
  <defs
     id="defs4824" />
  <sodipodi:namedview
     id="base"
     pagecolor="#ffffff"
     bordercolor="#666666"
     borderopacity="1.0"
     inkscape:pageopacity="0.0"
     inkscape:pageshadow="2"
     inkscape:zoom="0.98994949"
     inkscape:cx="189.74799"
     inkscape:cy="155.19879"
     inkscape:document-units="px"
     inkscape:current-layer="layer1"
     showgrid="false"
     inkscape:window-width="1366"
     inkscape:window-height="708"
     inkscape:window-x="0"
     inkscape:window-y="0"
     inkscape:window-maximized="1"
     units="px" />
  <metadata
     id="metadata4827">
    <rdf:RDF>
      <cc:Work
         rdf:about="">
        <dc:format>image/svg+xml</dc:format>
        <dc:type
           rdf:resource="http://purl.org/dc/dcmitype/StillImage" />
        <dc:title></dc:title>
      </cc:Work>
    </rdf:RDF>
  </metadata>
  <g
     inkscape:label="Layer 1"
     inkscape:groupmode="layer"
     id="layer1"
     transform="translate(0,-552.36216)">
    <path
       d="m 431.3726,668.79317 c 29.3317,41.24453 47.74111,92.02336 51.07661,143.29007 0.66751,10.25421 0.7306,20.52794 0.15466,30.73228 -0.1689,68.193 -34.41331,110.44582 -82.26025,134.48434 -9.56897,4.8051 -19.68335,8.8838 -30.17016,12.25345 -15.12884,4.43648 -31.4197,8.25714 -48.44727,11.42299 -14.35551,2.6389 -29.27269,5.1802 -44.48904,7.2532 -15.21634,2.0708 -30.73388,3.6688 -46.28398,4.4213 -90.14825,12.403 -200.421469,-39.13041 -208.15887,-148.37927 -3.870736,-51.53127 9.672769,-98.94046 34.822368,-144.28971 7.737411,-14.43047 19.345537,-26.79667 29.018305,-39.16505 19.345537,-20.6125 42.561817,-37.10294 65.531847,-50.93712 11.43718,-6.43572 23.33633,-11.98891 35.57331,-16.63572 36.70483,-13.93393 76.44397,-19.70613 115.64788,-16.41888 12.85158,1.26199 25.59733,3.413 37.94013,6.77832 24.68153,6.73495 47.75128,18.32921 66.80377,37.39567 8.25227,8.38291 16.02427,17.65485 23.24069,27.79413"
       style="fill:#e6e6e6;fill-opacity:0.94117647;fill-rule:nonzero;stroke:none"
       id="path84"
       inkscape:connector-curvature="0" />
    <path
       d="m 456.53441,810.00595 c -8.13017,12.54184 -16.27866,25.05983 -24.40883,37.60166 l 0.32357,0.49006 c -6.42069,2.36352 -12.75389,5.00676 -18.9548,7.91453 -2.40139,-5.93047 -4.78448,-11.85879 -7.12483,-17.82397 l -0.16069,-0.34911 c 17.0174,-8.82309 33.78448,-18.08853 50.32566,-27.83317"
       style="fill:#b7be4b;fill-opacity:1;fill-rule:nonzero;stroke:none"
       id="path94"
       inkscape:connector-curvature="0" />
    <path
       d="m 375.77199,849.84104 c 0.4294,2.05344 0.84049,4.10689 1.59347,6.05192 -3.39452,7.40713 -6.7341,14.86415 -9.98007,22.34936 -1.24954,-1.18827 -2.58659,-2.26162 -4.06202,-3.12245 -2.3078,-1.32271 -4.86386,-2.04912 -7.40773,-2.71047 l -0.057,-0.007 c 4.23298,-18.92118 8.50259,-37.79466 12.75389,-56.69198 2.37901,11.37526 4.76007,22.75269 7.15944,34.13012"
       style="fill:#b7be4b;fill-opacity:1;fill-rule:nonzero;stroke:none"
       id="path96"
       inkscape:connector-curvature="0" />
    <path
       d="m 479.23784,945.06708 c 0.44568,4.8116 -0.6207,10.00051 -3.78323,13.47857 -2.64358,2.90994 -6.38813,4.27385 -9.98616,5.54884 -7.37923,2.61506 -14.76049,5.25179 -22.13768,7.84733 0.66954,-9.8921 -0.39887,-19.90778 -3.12996,-29.37271 3.33143,-1.11887 6.57739,-2.57602 9.65649,-4.32155 -12.91874,-26.99401 -25.056,-54.44121 -36.36295,-82.23536 6.20091,-2.90777 12.53411,-5.55101 18.9548,-7.91453 16.74878,26.15485 31.12056,54.02487 42.81214,83.12438 1.80104,4.45816 3.53291,9.01173 3.97655,13.84503"
       style="fill:#efd5ae;fill-opacity:1;fill-rule:nonzero;stroke:none"
       id="path98"
       inkscape:connector-curvature="0" />
    <path
       d="m 419.4246,913.93582 c 1.4673,5.12601 1.05621,11.19528 -2.30982,15.16773 -0.15255,0.19081 -0.34597,0.37729 -0.53523,0.54425 -6.79516,0.93674 -13.59641,1.93636 -20.36511,3.02054 -1.12337,-6.31212 -3.12387,-12.5722 -6.29452,-17.96275 2.37291,-0.63968 4.58301,-2.0426 6.22329,-3.98113 -8.27873,-9.4324 -16.53712,-18.84094 -24.81585,-28.25166 -1.26583,-1.43979 -2.54793,-2.90127 -3.94197,-4.23048 3.24597,-7.48521 6.58555,-14.94223 9.98007,-22.34936 0.12406,0.32307 0.25235,0.62665 0.39685,0.9519 1.59753,3.50625 4.31234,6.2796 6.91318,9.03993 9.94141,10.55995 18.72077,22.30383 27.19284,34.24287 3.04042,4.27818 6.10932,8.68431 7.55627,13.80816"
       style="fill:#efd5ae;fill-opacity:1;fill-rule:nonzero;stroke:none"
       id="path100"
       inkscape:connector-curvature="0" />
    <path
       d="m 238.88594,919.21579 c 0.60442,2.07296 1.0033,4.24783 1.1722,6.39886 0.50063,6.7241 -0.90357,13.43303 -2.50315,19.95332 -4.04575,16.47525 -9.41432,32.56021 -16.05073,48.05536 -3.65094,-2.975 -7.43213,-5.7787 -11.31101,-8.38507 -8.88927,-5.99555 -18.35446,-11.01748 -28.21241,-14.96174 -1.14169,-0.47271 -2.28744,-0.90422 -3.45355,-1.33789 l 0.14035,-0.46186 c 2.38316,-11.57691 6.02189,-22.85243 10.77382,-33.57718 0.68786,-1.54387 1.39403,-3.0639 2.1165,-4.56007 3.91143,-8.16174 8.74476,-16.20639 15.92048,-21.22398 1.62196,-1.13406 3.40063,-2.06429 5.2546,-2.77985 1.69522,-0.67002 3.4515,-1.14707 5.22609,-1.41378 4.86794,-0.70688 9.8193,0.19082 13.77551,3.22003 3.48407,2.66709 5.83256,6.66556 7.1513,11.07385"
       style="fill:#98c495;fill-opacity:1;fill-rule:nonzero;stroke:none"
       id="path106"
       inkscape:connector-curvature="0" />
    <path
       d="m 342.14828,1004.5389 c -1.49579,3.3219 -3.26835,6.4899 -5.29529,9.4649 -38.84778,6.9258 -78.65001,4.9049 -117.8641,0.7308 -5.9282,-0.6267 -11.94596,-1.3466 -17.48953,-3.6125 3.56953,-8.2593 6.17038,-17.16051 8.69389,-25.88384 3.87888,2.60637 7.66007,5.41007 11.31101,8.38507 6.63641,-15.49515 12.00498,-31.58011 16.05073,-48.05536 1.59958,-6.52029 3.00378,-13.22922 2.50315,-19.95332 -0.1689,-2.15103 -0.56778,-4.3259 -1.1722,-6.39886 29.0997,4.63598 59.05822,3.16799 87.6349,-4.30638 1.72373,2.14886 3.36401,4.3736 4.89846,6.66991 8.65115,12.72398 14.80119,27.44069 16.61853,42.98354 1.57312,13.54797 -0.33376,27.74211 -5.88955,39.97604"
       style="fill:#b7be4b;fill-opacity:1;fill-rule:nonzero;stroke:none"
       id="path112"
       inkscape:connector-curvature="0" />
    <path
       d="m 102.36009,977.4408 c 1.23122,-1.94068 2.4828,-3.89872 3.69572,-5.84375 5.38687,6.84771 10.77578,13.69541 16.16267,20.54312 -4.46092,7.60663 -8.94218,15.20893 -13.40513,22.81553 -1.29432,2.2031 -2.79824,4.571 -5.17116,5.2106 -3.54919,0.9498 -6.760556,-2.5391 -8.624698,-5.9044 -7.546097,-13.7258 -7.57866,-30.67378 -13.06118,-45.46421 -5.236276,-14.10306 -15.132906,-25.54988 -22.80518,-38.33458 -2.069683,-3.45204 -4.005052,-7.09489 -4.717338,-11.12806 -0.651226,-3.838 -0.01819,-8.12053 2.372912,-11.03699 8.744774,14.41097 21.01838,26.62755 36.89613,35.04082 1.778659,0.93457 3.583779,1.81059 5.411293,2.6259 0.484349,3.15715 -1.316706,6.40536 -1.776633,9.67092 -0.468067,3.34796 0.502668,6.70242 1.467301,9.9116 1.184419,3.97896 2.368833,7.93623 3.555293,11.8935"
       style="fill:#e8c691;fill-opacity:1;fill-rule:nonzero;stroke:none"
       id="path114"
       inkscape:connector-curvature="0" />
    <path
       d="m 201.479,1011.1199 c -2.77789,6.4379 -6.16021,12.4811 -10.58245,17.7916 -1.42659,1.7346 -3.1035,3.4627 -5.22814,3.942 -4.11087,0.9302 -7.65192,-3.0076 -10.17543,-6.5875 -8.57586,-12.2817 -16.14842,-25.3049 -22.67087,-38.94395 -0.76316,-1.61326 -1.52428,-3.24604 -2.2447,-4.89834 -2.3261,-5.27997 -4.45277,-10.62066 -6.67712,-15.95268 -1.73593,-4.1199 -4.60133,-8.83393 -4.26554,-13.46123 0.12405,-1.53953 0.57796,-3.06606 1.55277,-4.5579 1.34112,-2.07514 3.46168,-3.36097 5.38687,-4.81378 5.60667,-4.25433 9.86611,-10.51441 11.91747,-17.50523 0.85066,-2.8731 1.39404,-5.9847 3.132,-8.34822 3.38232,-4.59261 9.77045,-4.7032 15.23874,-4.35191 1.25768,0.0715 2.59066,0.17121 3.62652,0.94324 2.03916,1.47882 2.03712,4.62729 1.71558,7.225 -0.62071,4.98941 -1.68302,9.93112 -3.14218,14.72538 l 0.32155,0.0975 c 1.40828,0.10845 2.50112,1.32054 2.96715,2.77985 0.14245,0.36646 0.21978,0.7676 0.26253,1.1449 0.15679,1.88214 -0.50267,3.71658 -1.17222,5.4903 -2.07171,5.53802 -4.4548,11.47934 -9.30441,14.48903 -1.67081,1.04516 -3.79544,1.93853 -4.27368,3.93776 -0.32358,1.37475 0.30323,2.78636 0.88322,4.07003 2.36681,5.05663 4.75397,10.09592 7.12078,15.15255 2.0249,-4.40613 4.06814,-8.80791 6.1134,-13.21187 9.85795,3.94426 19.32314,8.9662 28.21241,14.96175 -2.52351,8.72334 -5.12436,17.62452 -8.69389,25.88382 l -0.0204,-10e-4"
       style="fill:#e8c691;fill-opacity:1;fill-rule:nonzero;stroke:none"
       id="path116"
       inkscape:connector-curvature="0" />
    <path
       d="m 117.3363,874.02484 c -0.13219,-1.50485 -0.2666,-2.99018 -0.39888,-4.4755 l 0.18112,-0.0628 c -2.53571,-9.71429 -1.57515,-20.42602 2.64968,-29.44427 0.51081,-1.10586 1.09895,-2.20306 2.05544,-2.86875 0.97684,-0.66351 2.41566,-0.67653 3.14625,0.24937 1.75017,7.91237 2.14701,16.15867 1.2007,24.2185 -0.34393,2.84273 -0.88323,5.70714 -2.29354,8.12704 -1.41439,2.43941 -3.86463,4.3324 -6.54077,4.25651"
       style="fill:#374753;fill-opacity:1;fill-rule:nonzero;stroke:none"
       id="path124"
       inkscape:connector-curvature="0" />
    <path
       d="m 129.31075,813.8136 c 3.77712,2.0361 3.75474,7.68904 3.18288,12.14287 -4.94119,-1.82794 -10.15712,-2.81454 -15.39137,-2.975 -0.76722,-2.40255 1.07046,-5.02411 2.99769,-6.7046 2.60288,-2.27245 6.2294,-4.06352 9.2108,-2.46327"
       style="fill:#374753;fill-opacity:1;fill-rule:nonzero;stroke:none"
       id="path126"
       inkscape:connector-curvature="0" />
    <path
       d="m 73.431334,874.47152 8.610955,0 0,-28.34296 -8.610955,0 0,28.34296 z"
       style="fill:#faedcf;fill-opacity:1;fill-rule:nonzero;stroke:none"
       id="path148"
       inkscape:connector-curvature="0" />
    <path
       d="m 126.17061,861.64129 c 0.94631,-8.05982 0.54947,-16.30613 -1.2007,-24.2185 -0.73059,-0.92589 -2.17143,-0.91288 -3.14625,-0.24936 -0.95649,0.66569 -1.54463,1.76289 -2.05544,2.86875 -4.22483,9.01824 -5.18539,19.72998 -2.64968,29.44427 l -0.18112,0.0628 c 0.13236,1.48533 0.26659,2.97067 0.39888,4.47552 2.67614,0.0758 5.12638,-1.81709 6.54077,-4.2565 1.41235,-2.41991 1.94961,-5.28432 2.29354,-8.12705 m 80.92116,28.68534 c 1.55074,5.46862 3.42505,10.8028 5.64127,16.00906 -1.85397,0.71555 -3.63264,1.64579 -5.2546,2.77984 -7.17572,5.0176 -12.00905,13.06225 -15.92048,21.22399 -0.72247,1.49617 -1.42864,3.01619 -2.1165,4.56007 l -0.23811,-0.16913 c -2.22638,1.58508 -4.50364,3.06391 -6.85213,4.47335 -0.46603,-1.45931 -1.55887,-2.6736 -2.96715,-2.77986 l -0.32155,-0.0955 c 1.45916,-4.79643 2.52147,-9.74031 3.14218,-14.72755 0.32154,-2.59771 0.32358,-5.74618 -1.71558,-7.225 -1.03586,-0.77194 -2.36884,-0.87168 -3.62652,-0.94325 -5.46829,-0.35128 -11.85642,-0.24069 -15.23874,4.35192 -1.73796,2.36352 -2.28134,5.47512 -3.132,8.34822 -2.05136,6.99082 -6.3108,13.2509 -11.91747,17.50523 -1.92519,1.45281 -4.04575,2.73864 -5.38687,4.81377 -0.97481,1.49185 -1.42864,3.01838 -1.55277,4.55791 -6.34337,0.46837 -12.71523,0.20817 -18.96294,-0.76544 -3.12589,-0.45535 -6.21313,-1.11237 -9.26779,-1.93418 -4.19025,-1.12755 -8.29298,-2.57602 -12.289891,-4.3454 -1.827514,-0.81531 -3.632634,-1.69133 -5.411293,-2.6259 C 77.825086,934.9255 65.55148,922.70892 56.806706,908.29795 37.18847,876.01746 35.226646,832.64144 50.090924,796.05889 c 1.436765,-3.51491 3.022099,-6.9713 4.776348,-10.34745 35.54279,7.45052 71.958638,10.14797 108.105848,7.99044 1.13151,11.84363 2.2793,23.71111 3.41081,35.55473 0.10985,1.11021 0.23403,2.28328 0.86899,3.17883 0.56778,0.80663 1.45914,1.25331 2.31389,1.67398 3.75676,1.82793 7.5115,3.67538 11.24792,5.50114 -1.33909,14.56493 -0.44568,29.36621 2.63748,43.61455 2.71073,-12.5787 7.15128,-24.74324 13.11816,-35.97972 3.89313,-0.27322 7.84933,-0.37079 11.59796,0.70905 4.29607,1.26416 8.39474,4.41046 9.66057,8.97922 0.80588,2.81887 0.46603,5.82857 0.0387,8.74502 -0.77741,5.42743 -1.85193,10.8852 -4.13936,15.82258 -1.59958,3.39349 -3.83614,6.53329 -6.63643,8.82526 m -89.98955,-67.34515 c 5.23425,0.16047 10.44814,1.14707 15.39137,2.97717 0.57186,-4.45599 0.59424,-10.10893 -3.18288,-12.14503 -2.9814,-1.60025 -6.60792,0.19083 -9.2108,2.46328 -1.92723,1.68048 -3.76491,4.30204 -2.99769,6.70458 m -62.784461,-2.42423 c 4.694942,0.33176 9.330874,1.69133 13.527225,4.00065 0.197401,-2.52616 0.378521,-5.09784 -0.288986,-7.52858 -0.647161,-2.43074 -2.338312,-4.72271 -4.660354,-5.2583 -2.608978,-0.58763 -5.303427,1.19912 -6.734101,3.61468 -0.942238,1.55905 -1.477468,3.34579 -1.843784,5.17155 m 2.480766,20.93559 c -3.750666,8.53036 -3.252063,19.00141 1.284144,27.06556 l 1.375716,0.8912 0.313408,-0.23635 c 1.3981,-1.22079 2.043223,-3.13979 2.527572,-4.99374 1.939445,-7.25319 2.405475,-14.95091 1.371652,-22.41443 -0.197401,-1.42894 -0.590177,-3.06606 -1.790876,-3.73176 -1.996418,-1.10153 -4.141404,1.25983 -5.081616,3.41952 m 15.303858,39.75485 c 1.188494,2.88177 3.697747,5.17807 6.616069,5.57055 3.052624,0.40548 6.377964,-1.687 7.084136,-4.88533 -4.566731,-0.21468 -9.131436,-0.47055 -13.700205,-0.68522"
       style="fill:#efd5ae;fill-opacity:1;fill-rule:nonzero;stroke:none"
       id="path128"
       inkscape:connector-curvature="0" />
    <path
       d="m 217.95913,904.92191 c -1.77459,0.26671 -3.53087,0.74376 -5.22609,1.41378 -2.21622,-5.20626 -4.09053,-10.54044 -5.64127,-16.00906 2.80029,-2.29197 5.03685,-5.43177 6.63642,-8.82526 2.28743,-4.93737 3.36196,-10.39515 4.13937,-15.82258 0.4294,-2.91645 0.76722,-5.92615 -0.0388,-8.74502 -1.26583,-4.56876 -5.3645,-7.71506 -9.66057,-8.97922 -3.74862,-1.07984 -7.70483,-0.9801 -11.59795,-0.70905 -5.96689,11.23648 -10.40744,23.40319 -13.11615,35.97972 -3.08518,-14.24834 -3.97859,-29.04962 -2.6395,-43.61454 -3.73642,-1.82577 -7.49115,-3.67322 -11.24792,-5.50115 -0.85474,-0.42067 -1.74611,-0.86735 -2.31389,-1.67398 -0.63496,-0.89553 -0.75909,-2.06862 -0.86899,-3.17883 -1.13151,-11.84362 -2.2793,-23.7111 -3.40877,-35.55473 -36.14925,2.15753 -72.565096,-0.53992 -108.107886,-7.99259 -1.754249,3.3783 -3.339583,6.83469 -4.776348,10.34962 -8.396772,-25.02297 -13.523156,-53.21825 -3.65095,-77.54951 1.273965,6.9713 3.459651,13.76914 6.483789,20.09643 20.216547,-23.73062 47.382925,-40.67641 76.724805,-47.80167 -6.30876,7.3898 -11.6183,15.75536 -15.70476,24.74759 14.41249,-5.06098 29.56778,-7.68254 44.75971,-7.77144 -2.90814,6.79783 -6.728,13.14682 -11.33747,18.78891 14.28426,-3.27206 28.89212,-4.81161 43.4898,-4.56876 -4.04779,5.24529 -7.37516,11.10856 -9.86406,17.36864 31.09613,10.31709 62.82924,26.5213 79.59021,56.28215 1.73593,3.0639 3.33144,6.3815 3.46372,9.97882 0.12015,2.87093 -0.70618,5.6833 -1.54464,8.41111 -10.10005,32.42577 -25.22889,63.07564 -44.62327,90.293 l 0.0814,0.58762"
       style="fill:#374753;fill-opacity:1;fill-rule:nonzero;stroke:none"
       id="path130"
       inkscape:connector-curvature="0" />
    <path
       d="m 189.46385,890.56732 c 2.39936,1.84962 5.42148,2.56301 8.30722,2.31798 2.90407,-0.19949 5.62702,-1.42895 7.94092,-3.29158 4.67256,-3.76212 7.43621,-9.65141 8.96456,-15.81607 0.79164,-3.09861 1.33501,-6.3208 1.8214,-9.55384 0.47417,-3.14195 0.57185,-6.27958 -0.72449,-8.7732 -1.26787,-2.57603 -3.6306,-4.61646 -6.30064,-5.87195 -2.6802,-1.25982 -5.74708,-1.73903 -8.80989,-1.89516 -0.95445,-0.0433 -1.01347,-1.22294 -0.009,-1.29018 3.15235,-0.1778 6.4207,-0.026 9.57508,1.1384 3.10147,1.16225 6.06252,3.28074 7.89614,6.51595 1.92927,3.34362 1.83564,7.29006 1.43474,10.63367 -0.40702,3.34146 -0.91376,6.68725 -1.75017,10.00702 -1.60366,6.58317 -4.85573,13.2921 -10.48275,17.33393 -5.42961,4.14376 -13.66154,4.42781 -18.65971,-0.42066 -0.81606,-0.83265 0.0713,-1.62628 0.79776,-1.03431"
       style="fill:#d5b07e;fill-opacity:1;fill-rule:nonzero;stroke:none"
       id="path134"
       inkscape:connector-curvature="0" />
    <path
       d="m 130.92864,896.35903 c -9.43873,7.72589 -21.52308,11.4685 -33.407986,11.8523 -11.964271,0.39464 -23.731145,-2.38521 -34.761322,-6.54631 -0.852691,-0.31875 -0.573884,-1.46364 0.333765,-1.23814 11.3456,2.83406 22.868267,4.7509 34.32987,4.32807 11.406663,-0.44668 22.835723,-3.23954 32.801543,-9.50612 0.83438,-0.51607 1.45712,0.50739 0.70413,1.1102"
       style="fill:#d5b07e;fill-opacity:1;fill-rule:nonzero;stroke:none"
       id="path136"
       inkscape:connector-curvature="0" />
    <path
       d="m 96.883672,918.04487 c -5.496772,1.72168 -11.284559,1.43981 -16.651073,-0.65268 -0.205554,-0.0801 -0.09361,-1.25765 0.130238,-1.28366 5.610732,-0.63535 10.936554,-0.67003 16.471991,0.59629 0.232002,0.0541 0.266602,1.27283 0.04882,1.34005"
       style="fill:#d5b07e;fill-opacity:1;fill-rule:nonzero;stroke:none"
       id="path138"
       inkscape:connector-curvature="0" />
    <path
       d="m 204.51332,860.78912 c -2.16738,-0.25587 -4.30217,0.4597 -5.71249,1.87781 -1.41642,1.3509 -1.99031,3.43469 -1.79087,5.4296 0.055,0.49439 0.15059,0.98226 0.29711,1.44629 0.14247,0.48789 0.2605,0.83266 0.53523,1.35307 0.25642,0.47053 0.63698,1.01913 0.98702,1.71951 0.34189,0.67653 0.71228,1.66314 0.53116,2.76034 -0.1913,1.10586 -0.7713,1.72601 -1.12134,2.19871 -0.39888,0.51174 -0.82014,1.02348 -1.29227,1.50703 -0.92801,0.94757 -2.15517,1.83877 -3.57565,1.88864 -0.3765,-0.0196 -0.48232,-0.8088 -0.10985,-0.92805 0.98498,-0.33828 1.72372,-1.21429 2.33221,-2.19006 0.31137,-0.48789 0.5922,-1.01696 0.87101,-1.56339 0.30731,-0.57896 0.49046,-1.02998 0.4294,-1.23164 -0.005,-0.37729 -0.68175,-1.1644 -1.57719,-2.25943 -0.40904,-0.53343 -0.85473,-1.32705 -1.13557,-2.0361 -0.27067,-0.73724 -0.43347,-1.50918 -0.51895,-2.28329 -0.35004,-3.07908 0.8934,-6.43138 3.32736,-8.25931 2.36071,-1.77807 5.5212,-2.1879 7.9572,-0.83917 0.41516,0.22334 -0.10179,1.45064 -0.43348,1.40944"
       style="fill:#d5b07e;fill-opacity:1;fill-rule:nonzero;stroke:none"
       id="path150"
       inkscape:connector-curvature="0" />
    <path
       d="m 126.29882,693.26104 c -7.44435,3.71007 -14.60582,7.99259 -21.36028,12.91696 -6.75852,4.91353 -13.130366,10.42117 -19.032122,16.46008 -5.89768,6.04324 -11.311011,12.63291 -16.156561,19.6866 -4.86996,7.05371 -9.119219,14.54758 -12.648063,22.51417 -0.567793,1.21862 -1.076563,1.01479 -0.551511,-0.27322 3.158463,-8.11837 7.102455,-16.00255 11.699722,-23.37065 4.623715,-7.37246 9.95564,-14.25703 15.873677,-20.51927 5.922102,-6.25575 12.444556,-11.87615 19.445248,-16.70077 7.00477,-4.81161 14.46744,-8.87947 22.28014,-11.87832 1.35334,-0.39465 1.57312,0.4315 0.44975,1.16442"
       style="fill:#4a6776;fill-opacity:1;fill-rule:nonzero;stroke:none"
       id="path154"
       inkscape:connector-curvature="0" />
    <path
       d="m 94.522976,704.95721 c -4.89439,3.4 -9.703301,6.90841 -14.359578,10.6315 -4.646099,3.71008 -9.23115,7.5958 -13.576058,11.65065 -4.340843,4.06785 -8.378458,8.46964 -11.671224,13.45472 -1.652497,2.49362 -3.001754,5.17589 -4.108842,7.99044 -1.088769,2.79502 -1.998458,5.84808 -1.137612,8.7602 0.1628,0.95842 0.170941,1.02347 -0.44976,0.2125 -1.34519,-3.03571 -0.659366,-6.53112 0.199439,-9.48661 0.854741,-3.06174 2.161268,-5.99119 3.712002,-8.71684 3.109608,-5.49031 7.29578,-10.14146 11.703786,-14.33942 4.454801,-4.18278 9.123295,-7.97525 14.003434,-11.5162 4.876062,-3.52143 9.939359,-6.74579 15.187848,-9.5625 0.879151,-0.47487 1.271926,0.3838 0.496565,0.92156"
       style="fill:#4a6776;fill-opacity:1;fill-rule:nonzero;stroke:none"
       id="path156"
       inkscape:connector-curvature="0" />
    <path
       d="m 155.85846,708.70415 c -7.72519,0.86301 -15.40357,2.05777 -23.0209,3.5648 -7.59494,1.54604 -15.26926,3.07691 -21.72456,7.15128 -6.47769,4.07435 -11.512484,10.44502 -16.455709,16.7875 -4.904557,6.375 -10.026876,12.74349 -12.440491,20.61684 -0.352061,1.22729 -0.897471,1.10587 -0.584063,-0.17348 1.971996,-8.21594 6.835853,-15.16339 11.465671,-21.76173 4.635928,-6.62219 9.656482,-13.41569 16.634802,-17.94325 7.00884,-4.54707 15.06575,-5.92614 22.71361,-7.19898 7.73944,-1.22729 15.53993,-1.97321 23.33837,-2.19872 1.31467,0.0217 1.29229,0.96492 0.0732,1.15574"
       style="fill:#4a6776;fill-opacity:1;fill-rule:nonzero;stroke:none"
       id="path158"
       inkscape:connector-curvature="0" />
    <path
       d="m 190.45901,723.14981 c -8.30927,1.26199 -16.63684,2.36569 -24.97459,3.41952 -8.31129,1.04732 -16.64905,2.01225 -24.13206,5.4491 -7.48098,3.45422 -14.036,9.07246 -20.45466,14.73623 -6.31895,5.71149 -12.35909,12.05396 -15.8981,20.14631 -0.56983,1.24464 -0.98905,1.10587 -0.54744,-0.24069 2.97326,-8.54771 8.89943,-15.50816 15.06168,-21.59043 6.20702,-6.02373 12.75796,-12.03228 20.73551,-15.78139 8.00602,-3.74694 16.67346,-4.58176 24.98475,-5.36454 8.36014,-0.78495 16.72232,-1.52002 25.09873,-2.0838 1.40625,-0.0977 1.44288,1.11237 0.12618,1.30969"
       style="fill:#4a6776;fill-opacity:1;fill-rule:nonzero;stroke:none"
       id="path160"
       inkscape:connector-curvature="0" />
    <path
       d="m 118.62655,852.05277 c -0.0204,-1.80625 0.30323,-3.55396 0.85473,-5.2171 0.27678,-0.83265 0.60849,-1.64362 0.98499,-2.43507 0.37852,-0.78712 0.79774,-1.56556 1.35943,-2.26378 l 0.26863,0.11275 c -0.0366,0.92372 -0.20758,1.76938 -0.37649,2.62589 -0.17298,0.85 -0.35818,1.69133 -0.57186,2.52181 -0.42533,1.66314 -0.95852,3.28074 -1.75017,4.85498 l -0.76926,-0.1995"
       style="fill:#4a6776;fill-opacity:1;fill-rule:nonzero;stroke:none"
       id="path164"
       inkscape:connector-curvature="0" />
    <path
       d="m 58.083814,868.59793 c -4.536206,-8.06198 -5.03481,-18.53521 -1.284143,-27.06556 0.940211,-2.15969 3.085198,-4.52105 5.081615,-3.41952 1.2007,0.6657 1.593475,2.30282 1.790876,3.73176 1.033823,7.46352 0.567793,15.16123 -1.371652,22.41443 -0.484348,1.85395 -1.131498,3.77295 -2.527572,4.99374 l -0.313407,0.23635 -1.375717,-0.8912"
       style="fill:#374753;fill-opacity:1;fill-rule:nonzero;stroke:none"
       id="path122"
       inkscape:connector-curvature="0" />
    <path
       d="m 56.458709,850.21399 c -0.419224,-1.63277 -0.366315,-3.34145 0.103744,-4.91135 0.236066,-0.77844 0.539295,-1.55255 0.944276,-2.27028 0.219796,-0.36212 0.575934,-0.93239 1.16611,-1.08202 0.431441,-0.13652 0.671572,0.16046 0.86287,0.30141 0.172991,0.18431 0.343932,0.43801 0.254386,0.75025 l -0.264553,-0.0847 -0.246245,-0.20816 -0.199439,0.17346 c -0.112034,0.16255 -0.126185,0.3708 -0.168914,0.72857 -0.126174,0.75026 -0.250321,1.49618 -0.376495,2.2421 -0.260488,1.48533 -0.649187,2.90778 -1.253607,4.4148 l -0.822179,-0.0541"
       style="fill:#4a6776;fill-opacity:1;fill-rule:nonzero;stroke:none"
       id="path166"
       inkscape:connector-curvature="0" />
    <path
       d="m 67.611261,817.04249 c 0.667506,2.43075 0.486387,5.00244 0.288985,7.52858 -4.19635,-2.30931 -8.832282,-3.67104 -13.527225,-4.00064 0.366316,-1.82576 0.901547,-3.6125 1.843785,-5.17156 1.430674,-2.41556 4.125123,-4.2023 6.734101,-3.61467 2.322042,0.53559 4.013193,2.82756 4.660354,5.25829"
       style="fill:#374753;fill-opacity:1;fill-rule:nonzero;stroke:none"
       id="path120"
       inkscape:connector-curvature="0" />
    <path
       d="m 72.093258,881.25368 c 4.568769,0.21466 9.131435,0.46836 13.700204,0.68303 -0.706171,3.19834 -4.031512,5.29081 -7.084136,4.88533 -2.918321,-0.39248 -5.427585,-2.68877 -6.616068,-5.56836"
       style="fill:#d5b07e;fill-opacity:1;fill-rule:nonzero;stroke:none"
       id="path118"
       inkscape:connector-curvature="0" />
    <path
       d="m 440.3247,942.8308 c 2.73109,9.46492 3.79951,19.48061 3.12997,29.3727 -0.25846,4.01148 -0.8059,8.01429 -1.6586,11.94337 -32.67739,9.33916 -65.96531,16.25413 -99.52389,20.65373 5.55579,-12.23396 7.46266,-26.4281 5.88954,-39.97605 -1.81733,-15.54287 -7.96736,-30.25958 -16.61852,-42.98356 17.75003,-2.90561 35.19886,-8.01646 51.86418,-15.13737 2.63748,2.35051 4.82723,5.14988 6.63643,8.26364 3.17067,5.39057 5.17115,11.65065 6.29452,17.96277 6.7687,-1.08418 13.56997,-2.08381 20.36512,-3.02054 5.84883,-0.81098 11.71396,-1.5764 17.59332,-2.28112 0.14848,0.26454 0.29713,0.55076 0.40702,0.83048 2.33425,4.57742 4.21874,9.39553 5.62091,14.37195"
       style="fill:#374753;fill-opacity:1;fill-rule:nonzero;stroke:none"
       id="path102"
       inkscape:connector-curvature="0" />
    <path
       d="m 433.69486,928.42643 c -12.4181,2.17705 -24.86673,4.2153 -37.3642,5.84809 -6.26196,0.82181 -12.46898,1.5764 -18.80216,2.21823 -0.82829,0.0628 -1.70745,0.0867 -2.61712,-0.052 -0.96057,-0.13877 -1.81326,-0.49873 -2.59067,-0.94758 -1.50393,-0.91722 -2.69853,-1.85395 -4.04576,-2.77551 -2.61508,-1.8713 -5.26273,-3.68405 -7.83915,-5.61823 -0.76112,-0.66136 -0.46603,-1.24682 0.46604,-0.82616 2.80842,1.53088 5.54561,3.18967 8.3174,4.78559 1.36554,0.77411 2.80028,1.68916 4.08442,2.32882 1.26378,0.631 2.4828,0.64401 3.99487,0.4532 6.16835,-0.93457 12.4527,-1.84529 18.68617,-2.64975 12.49339,-1.64362 25.02954,-2.88826 37.57177,-3.96594 1.05418,-0.0888 1.12337,1.02781 0.13839,1.20127"
       style="fill:#4a6776;fill-opacity:1;fill-rule:nonzero;stroke:none"
       id="path152"
       inkscape:connector-curvature="0" />
    <path
       d="m 100.72906,968.28719 c -0.0987,-0.52296 0.146,-1.03472 0.38606,-1.52626 2.78768,-5.59781 5.55517,-11.22032 8.3406,-16.81811 3.36901,0.85066 6.77394,1.53074 10.2215,2.00209 6.39237,9.89829 20.90057,14.18565 24.13746,25.5156 2.60118,9.10488 -10.56939,15.73846 -15.87542,23.59429 -2.18615,-2.59684 -4.37006,-5.21628 -6.55621,-7.81309 -5.94122,-7.08821 -11.88469,-14.17637 -17.8259,-21.26455 -0.72946,-0.86413 -1.47688,-1.75296 -2.20636,-2.61933 -0.26709,-0.3277 -0.5342,-0.65316 -0.62173,-1.07064"
       style="fill:#98c495;fill-opacity:1;fill-rule:nonzero;stroke:none"
       id="path104"
       inkscape:connector-curvature="0"
       sodipodi:nodetypes="ccccsccccc" />
    <path
       d="m 142.92182,977.10337 c -9.51447,-6.95126 -17.74509,-15.61731 -24.13746,-25.5156 6.89064,1.00779 13.91821,1.27713 20.91434,0.79232 -0.37035,4.78978 2.78994,9.66935 4.7045,13.93391 2.45326,5.51925 4.53091,12.56535 7.09638,18.03072 -3.11064,-2.81091 -5.7362,-5.18089 -8.57776,-7.24135"
       style="fill:#b7be4b;fill-opacity:1;fill-rule:nonzero;stroke:none"
       id="path108"
       inkscape:connector-curvature="0"
       sodipodi:nodetypes="cccccc" />
    <path
       d="m 190.96066,933.10071 c -5.31511,11.25846 -9.38508,23.09509 -12.05059,35.24814 l -0.15716,0.48483 c 1.3043,0.45526 2.58584,0.90823 3.86283,1.40446 -2.28765,4.62312 -4.57304,9.24396 -6.83793,13.86936 -2.64732,-5.30829 -5.31738,-10.59834 -7.96469,-15.90663 -0.64873,-1.34755 -1.34983,-2.82939 -0.98791,-4.27257 0.53495,-2.09872 2.91135,-3.03655 4.78019,-4.1337 5.42435,-3.15948 7.9005,-9.11237 10.21772,-14.92598 0.27079,-0.76271 0.70973,-2.99536 0.54399,-5.73429 2.62683,-1.47957 5.80532,-3.97901 8.32942,-6.21116 l 0.26405,0.17754"
       style="fill:#b7be4b;fill-opacity:1;fill-rule:nonzero;stroke:none"
       id="path110"
       inkscape:connector-curvature="0"
       sodipodi:nodetypes="cccccccccccc" />
  </g>
</svg>
