<?xml version="1.0" encoding="UTF-8" standalone="no"?>
<!-- Generator: Adobe Illustrator 16.0.0, SVG Export Plug-In . SVG Version: 6.00 Build 0)  -->

<svg
   xmlns:dc="http://purl.org/dc/elements/1.1/"
   xmlns:cc="http://creativecommons.org/ns#"
   xmlns:rdf="http://www.w3.org/1999/02/22-rdf-syntax-ns#"
   xmlns:svg="http://www.w3.org/2000/svg"
   xmlns="http://www.w3.org/2000/svg"
   xmlns:sodipodi="http://sodipodi.sourceforge.net/DTD/sodipodi-0.dtd"
   xmlns:inkscape="http://www.inkscape.org/namespaces/inkscape"
   version="1.1"
   id="Capa_1"
   x="0px"
   y="0px"
   width="512px"
   height="512px"
   viewBox="0 0 612 612"
   style="enable-background:new 0 0 612 612;"
   xml:space="preserve"
   inkscape:version="0.91 r13725"
   sodipodi:docname="left-arrow.svg"><metadata
     id="metadata45"><rdf:RDF><cc:Work
         rdf:about=""><dc:format>image/svg+xml</dc:format><dc:type
           rdf:resource="http://purl.org/dc/dcmitype/StillImage" /><dc:title></dc:title></cc:Work></rdf:RDF></metadata><defs
     id="defs43" /><sodipodi:namedview
     pagecolor="#ffffff"
     bordercolor="#666666"
     borderopacity="1"
     objecttolerance="10"
     gridtolerance="10"
     guidetolerance="10"
     inkscape:pageopacity="0"
     inkscape:pageshadow="2"
     inkscape:window-width="1366"
     inkscape:window-height="708"
     id="namedview41"
     showgrid="false"
     inkscape:zoom="0.4609375"
     inkscape:cx="256"
     inkscape:cy="256"
     inkscape:window-x="0"
     inkscape:window-y="0"
     inkscape:window-maximized="1"
     inkscape:current-layer="Capa_1" /><g
     id="g3"
     style="fill:#ffffff;fill-opacity:0.40314134"
     transform="matrix(-1,0,0,1,612,0)"><g
       id="g5"
       style="fill:#ffffff;fill-opacity:0.40314134"><path
         d="M 587.572,186.881 C 555.306,111.656 500.476,56.947 424.616,24.596 386.711,8.427 346.985,0.168 305.497,0.168 264.009,0.168 224.583,8.349 186.713,24.596 111.488,56.861 56.415,111.535 24.092,186.881 7.895,224.629 0,264.176 0,305.664 c 0,41.496 7.895,81.371 24.092,119.127 32.323,75.346 87.396,130.348 162.621,162.621 37.87,16.247 77.295,24.42 118.784,24.42 41.489,0 81.214,-8.259 119.12,-24.42 75.86,-32.352 130.69,-87.403 162.956,-162.621 C 603.819,386.914 612,347.16 612,305.664 c 0,-41.488 -8.181,-80.907 -24.428,-118.783 z m -48.855,253.972 c -24.014,41.195 -56.922,73.876 -98.375,98.039 -41.196,24.021 -86.325,36.135 -134.845,36.135 -36.47,0 -71.27,-7.024 -104.399,-21.415 C 167.975,539.228 139.365,520.318 115.436,496.397 91.515,472.469 72.47,443.586 58.222,410.4 44.024,377.335 37.142,342.142 37.142,305.665 c 0,-48.52 11.921,-93.428 35.799,-134.509 23.971,-41.231 56.886,-73.947 98.04,-98.04 41.16,-24.092 85.997,-36.142 134.517,-36.142 48.52,0 93.649,12.121 134.845,36.142 41.453,24.164 74.283,56.879 98.375,98.04 24.092,41.153 36.142,85.99 36.142,134.509 -0.002,48.52 -11.972,93.734 -36.143,135.188 z"
         id="path7"
         style="fill:#ffffff;fill-opacity:0.40314134"
         inkscape:connector-curvature="0" /><path
         d="m 270.026,128.995 c -7.603,-7.795 -19.402,-7.367 -26.098,-0.671 -7.695,7.695 -7.274,18.981 -0.671,25.763 L 392.828,307.678 243.257,457.242 c -7.21,7.217 -6.689,19.074 0,25.77 3.683,3.677 8.366,5.689 13.72,5.689 5.019,0 9.366,-2.021 13.049,-5.689 L 432.312,321.391 c 7.23,-7.195 6.609,-19.324 0,-26.098 L 270.026,128.995 Z"
         id="path9"
         style="fill:#ffffff;fill-opacity:0.40314134"
         inkscape:connector-curvature="0" /></g></g><g
     id="g11" /><g
     id="g13" /><g
     id="g15" /><g
     id="g17" /><g
     id="g19" /><g
     id="g21" /><g
     id="g23" /><g
     id="g25" /><g
     id="g27" /><g
     id="g29" /><g
     id="g31" /><g
     id="g33" /><g
     id="g35" /><g
     id="g37" /><g
     id="g39" /></svg>