<?xml version="1.0" encoding="UTF-8" standalone="no"?>
<!-- Created with Inkscape (http://www.inkscape.org/) -->

<svg
   xmlns:dc="http://purl.org/dc/elements/1.1/"
   xmlns:cc="http://creativecommons.org/ns#"
   xmlns:rdf="http://www.w3.org/1999/02/22-rdf-syntax-ns#"
   xmlns:svg="http://www.w3.org/2000/svg"
   xmlns="http://www.w3.org/2000/svg"
   xmlns:sodipodi="http://sodipodi.sourceforge.net/DTD/sodipodi-0.dtd"
   xmlns:inkscape="http://www.inkscape.org/namespaces/inkscape"
   id="svg2"
   version="1.1"
   inkscape:version="0.91 r13725"
   xml:space="preserve"
   width="1523.625"
   height="1523.625"
   viewBox="0 0 1523.625 1523.625"
   sodipodi:docname="savetime.svg"><metadata
     id="metadata8"><rdf:RDF><cc:Work
         rdf:about=""><dc:format>image/svg+xml</dc:format><dc:type
           rdf:resource="http://purl.org/dc/dcmitype/StillImage" /><dc:title></dc:title></cc:Work></rdf:RDF></metadata><defs
     id="defs6" /><sodipodi:namedview
     pagecolor="#ffffff"
     bordercolor="#666666"
     borderopacity="1"
     objecttolerance="10"
     gridtolerance="10"
     guidetolerance="10"
     inkscape:pageopacity="0"
     inkscape:pageshadow="2"
     inkscape:window-width="1366"
     inkscape:window-height="708"
     id="namedview4"
     showgrid="false"
     inkscape:zoom="0.21905285"
     inkscape:cx="-188.6169"
     inkscape:cy="229.02564"
     inkscape:window-x="0"
     inkscape:window-y="0"
     inkscape:window-maximized="1"
     inkscape:current-layer="g10" /><g
     inkscape:groupmode="layer"
     id="layer1"
     inkscape:label="ink_ext_XXXXXX 1"><path
       d="m 1326.5693,359.66432 c 93.4203,131.36226 152.0536,293.09089 162.677,456.37341 2.126,32.65926 2.3269,65.38068 0.4923,97.88114 -0.5378,217.19203 -109.6049,351.76553 -261.9956,428.32753 -30.4768,15.3041 -62.6907,28.2945 -96.0909,39.0266 -48.1847,14.1301 -100.0705,26.2985 -154.3025,36.3817 -45.72203,8.4049 -93.23253,16.4988 -141.69616,23.1013 -48.46327,6.5954 -97.88618,11.6849 -147.41265,14.0816 C 401.12206,1494.3409 49.906062,1330.2089 25.262735,982.25543 12.934574,818.1303 56.070138,667.13385 136.17064,522.69821 c 24.64338,-45.9605 61.61479,-85.34637 92.42218,-124.73918 61.61482,-65.65004 135.55779,-118.17146 208.71644,-162.23278 36.42698,-20.49753 74.32532,-38.18423 113.29964,-52.98414 116.90348,-44.37903 243.47125,-62.76328 368.33418,-52.2935 40.93187,4.01938 81.52642,10.87027 120.83792,21.58868 78.6095,21.45056 152.086,58.37784 212.7675,119.10378 26.2829,26.69926 51.0365,56.23002 74.0208,88.52325"
       style="fill:#e6e6e6;fill-opacity:0.94117647;fill-rule:nonzero;stroke:none"
       id="path84-3"
       inkscape:connector-curvature="0" /></g><g
     id="g10"
     inkscape:groupmode="layer"
     inkscape:label="ink_ext_XXXXXX"
     transform="matrix(1.25,0,0,-1.25,0,1523.625)"><g
       id="g12"
       transform="matrix(0.10806649,0,0,0.10806649,-38.989416,-47.07808)"><path
         d="m 4782.77,2481.6 c -859.56,0 -1473.73,86.85 -1473.73,194.07 0,107.11 614.17,193.99 1473.73,193.99 859.55,0 1639.09,-86.88 1639.09,-193.99 0,-107.22 -779.54,-194.07 -1639.09,-194.07"
         style="fill:#6b4a33;fill-opacity:1;fill-rule:nonzero;stroke:none"
         id="path16"
         inkscape:connector-curvature="0" /><path
         d="m 8335.32,6089.45 c 0,-1908.39 -1547.04,-3455.43 -3455.47,-3455.43 -1908.33,0 -3455.33,1547.04 -3455.33,3455.43 0,1908.32 1547,3455.41 3455.33,3455.41 1908.43,0 3455.47,-1547.09 3455.47,-3455.41"
         style="fill:#a6a8ab;fill-opacity:1;fill-rule:nonzero;stroke:none"
         id="path18"
         inkscape:connector-curvature="0" /><path
         d="m 7758.48,6089.45 c 0,-1589.87 -1288.78,-2878.6 -2878.63,-2878.6 -1589.71,0 -2878.46,1288.73 -2878.46,2878.6 0,1589.69 1288.75,2878.56 2878.46,2878.56 1589.85,0 2878.63,-1288.87 2878.63,-2878.56"
         style="fill:#f0f1f1;fill-opacity:1;fill-rule:nonzero;stroke:none"
         id="path20"
         inkscape:connector-curvature="0" /><path
         d="m 4879.85,3210.85 c -1589.71,0 -2878.46,1288.73 -2878.46,2878.6 0,1589.69 1288.75,2878.56 2878.46,2878.56 l 0.09,0 0,576.85 -0.09,0 c -1908.33,0 -3455.33,-1547.09 -3455.33,-3455.41 0,-1908.39 1547,-3455.43 3455.33,-3455.43 l 0.09,0 0,576.83 -0.09,0"
         style="fill:#d0d2d3;fill-opacity:1;fill-rule:nonzero;stroke:none"
         id="path22"
         inkscape:connector-curvature="0" /><path
         d="m 2001.39,6089.45 c 0,-1589.87 1288.75,-2878.6 2878.46,-2878.6 l 0.09,0 0,5757.16 -0.09,0 c -1589.71,0 -2878.46,-1288.87 -2878.46,-2878.56"
         style="fill:#ffffff;fill-opacity:1;fill-rule:nonzero;stroke:none"
         id="path24"
         inkscape:connector-curvature="0" /><path
         d="m 5034.75,8516.09 c 0,-73.82 -59.86,-133.67 -133.68,-133.67 l -42.31,0 c -73.82,0 -133.64,59.85 -133.64,133.67 l 0,530.54 c 0,73.83 59.82,133.65 133.64,133.65 l 42.31,0 c 73.82,0 133.68,-59.82 133.68,-133.65 l 0,-530.54"
         style="fill:#773249;fill-opacity:1;fill-rule:nonzero;stroke:none"
         id="path26"
         inkscape:connector-curvature="0" /><path
         d="m 2453.22,6244.39 c 73.8,0 133.68,-59.94 133.68,-133.88 l 0,-42.23 c 0,-73.87 -59.88,-133.78 -133.68,-133.78 l -530.43,0 c -73.88,0 -133.76,59.91 -133.76,133.78 l 0,42.23 c 0,73.94 59.88,133.88 133.76,133.88 l 530.43,0"
         style="fill:#6c6e70;fill-opacity:1;fill-rule:nonzero;stroke:none"
         id="path28"
         inkscape:connector-curvature="0" /><path
         d="m 7306.67,5934.5 c -73.85,0 -133.7,59.91 -133.7,133.78 l 0,42.23 c 0,73.94 59.85,133.88 133.7,133.88 l 530.45,0 c 73.87,0 133.74,-59.94 133.74,-133.88 l 0,-42.23 c 0,-73.87 -59.87,-133.78 -133.74,-133.78 l -530.45,0"
         style="fill:#6c6e70;fill-opacity:1;fill-rule:nonzero;stroke:none"
         id="path30"
         inkscape:connector-curvature="0" /><path
         d="m 5034.75,8516.09 c 0,-73.82 -59.86,-133.67 -133.68,-133.67 l -42.31,0 c -73.82,0 -133.64,59.85 -133.64,133.67 l 0,530.54 c 0,73.83 59.82,133.65 133.64,133.65 l 42.31,0 c 73.82,0 133.68,-59.82 133.68,-133.65 l 0,-530.54"
         style="fill:#6c6e70;fill-opacity:1;fill-rule:nonzero;stroke:none"
         id="path32"
         inkscape:connector-curvature="0" /><path
         d="m 4725.12,3662.68 c 0,73.93 59.82,133.8 133.64,133.8 l 42.31,0 c 73.82,0 133.68,-59.87 133.68,-133.8 l 0,-530.48 c 0,-73.79 -59.86,-133.62 -133.68,-133.62 l -42.31,0 c -73.82,0 -133.64,59.83 -133.64,133.62 l 0,530.48"
         style="fill:#6c6e70;fill-opacity:1;fill-rule:nonzero;stroke:none"
         id="path34"
         inkscape:connector-curvature="0" /><path
         d="m 5228.22,5834.97 c 52.18,-52.3 52.18,-137 0,-189.13 l -29.96,-29.93 c -52.29,-52.23 -136.87,-52.3 -189.17,0 l -1734.57,1734.6 c -52.36,52.2 -52.32,136.96 0,189.29 l 29.86,29.9 c 52.12,52.23 136.84,52.23 189.05,0 L 5228.22,5834.97"
         style="fill:#403f41;fill-opacity:1;fill-rule:nonzero;stroke:none"
         id="path36"
         inkscape:connector-curvature="0" /><path
         d="m 4765.88,5615.91 c -52.15,-52.3 -136.92,-52.23 -189.09,0 l -29.85,29.93 c -52.37,52.13 -52.37,136.83 -0.09,189.13 L 5828.4,7116.46 c 52.12,52.27 136.86,52.27 189.12,0 l 29.92,-29.96 c 52.24,-52.17 52.24,-136.86 0,-189.11 L 4765.88,5615.91"
         style="fill:#403f41;fill-opacity:1;fill-rule:nonzero;stroke:none"
         id="path38"
         inkscape:connector-curvature="0" /><path
         d="m 7272.66,2261.13 c -546.85,0 -937.64,78.9 -937.64,176.3 0,97.37 390.79,176.29 937.64,176.29 546.9,0 1042.85,-78.92 1042.85,-176.29 0,-97.4 -495.95,-176.3 -1042.85,-176.3"
         style="fill:#6b4a33;fill-opacity:1;fill-rule:nonzero;stroke:none"
         id="path40"
         inkscape:connector-curvature="0" /><path
         d="m 9213.2,2484.49 c -546.93,0 -920.18,78.98 -920.18,176.29 0,97.41 373.25,176.35 920.18,176.35 546.85,0 990.3,-78.94 990.3,-176.35 0,-97.31 -443.45,-176.29 -990.3,-176.29"
         style="fill:#6b4a33;fill-opacity:1;fill-rule:nonzero;stroke:none"
         id="path42"
         inkscape:connector-curvature="0" /><path
         d="m 10377.1,5530.41 c 0,0 74.1,-80.11 195,174.35 120.7,254.33 38.7,-317.11 -93.5,-437.73 -132.1,-120.72 -139.5,6.98 -139.5,6.98 l 38,256.4"
         style="fill:#d15c58;fill-opacity:1;fill-rule:nonzero;stroke:none"
         id="path44"
         inkscape:connector-curvature="0" /><path
         d="m 9805.13,5786.18 c 0,0 402.37,152.39 592.97,-216.06 190.5,-368.36 26.9,-558.76 -100.9,-622.42 -127.8,-63.6 -492.07,838.48 -492.07,838.48"
         style="fill:#ea786a;fill-opacity:1;fill-rule:nonzero;stroke:none"
         id="path46"
         inkscape:connector-curvature="0" /><path
         d="m 6489.71,3265.93 135.06,-753.3 c 0,0 232.69,-164.74 601.14,-63.08 368.44,101.67 162.71,468.86 162.71,468.86 l -898.91,347.52"
         style="fill:#ea786a;fill-opacity:1;fill-rule:nonzero;stroke:none"
         id="path48"
         inkscape:connector-curvature="0" /><path
         d="m 8547.18,3074.83 88.95,-447.39 c 0,0 241.38,-101.63 508.14,0 266.8,101.63 63.54,638.49 63.54,638.49 l -660.63,-191.1"
         style="fill:#d15c58;fill-opacity:1;fill-rule:nonzero;stroke:none"
         id="path50"
         inkscape:connector-curvature="0" /><path
         d="m 7028.97,6566.19 c 0,0 -444.68,564.96 -584.42,526.88 -139.71,-38.16 63.58,-980.77 0,-1131.98 -63.5,-151.22 584.42,605.1 584.42,605.1"
         style="fill:#ea786a;fill-opacity:1;fill-rule:nonzero;stroke:none"
         id="path52"
         inkscape:connector-curvature="0" /><path
         d="m 6880.72,6415.32 c 0,0 -340.84,474.46 -366.21,487.19 -25.46,12.72 39.25,-493.7 25.37,-664.75 -13.85,-170.99 340.84,177.56 340.84,177.56"
         style="fill:#d15c58;fill-opacity:1;fill-rule:nonzero;stroke:none"
         id="path54"
         inkscape:connector-curvature="0" /><path
         d="m 9016.95,3135.61 140.04,-533.57 c 0,0 381.1,-183.77 736.83,100.22 38.15,322.08 70.14,1106.7 70.14,1106.7 l -947.01,-622.87"
         style="fill:#ea786a;fill-opacity:1;fill-rule:nonzero;stroke:none"
         id="path56"
         inkscape:connector-curvature="0" /><path
         d="m 10408.4,4851.38 c 95.3,-1326.83 -1110.94,-1979.23 -2457.82,-1979.23 -1346.86,0 -2191.01,723.16 -2191.01,1826.74 0,1103.68 1034.39,2112.63 2286.28,2112.63 1327.11,0 2283.55,-859.45 2362.55,-1960.14"
         style="fill:#f88976;fill-opacity:1;fill-rule:nonzero;stroke:none"
         id="path58"
         inkscape:connector-curvature="0" /><path
         d="m 7105.24,6013.17 c -19.09,95.28 463.27,925.33 603.44,857.54 140.14,-67.74 215.96,-1205.48 126.99,-1384.02 -88.92,-178.63 -711.34,431.19 -730.43,526.48"
         style="fill:#ea786a;fill-opacity:1;fill-rule:nonzero;stroke:none"
         id="path60"
         inkscape:connector-curvature="0" /><path
         d="m 7272.89,6057.63 c 0,0 289.65,578.75 365.93,584.76 76.23,5.96 88.95,-1065.86 -38.12,-961.87 -127.04,103.96 -334.98,300.92 -327.81,377.11"
         style="fill:#d15c58;fill-opacity:1;fill-rule:nonzero;stroke:none"
         id="path62"
         inkscape:connector-curvature="0" /><path
         d="m 7927.98,6623.36 c 0,0 713.35,104.91 1369.57,-283.38 56.41,-63.59 57.11,-139.78 57.11,-139.78 0,0 -570.23,317.79 -1369.5,255.1 -6.92,72.28 -57.18,168.06 -57.18,168.06"
         style="fill:#d15c58;fill-opacity:1;fill-rule:nonzero;stroke:none"
         id="path64"
         inkscape:connector-curvature="0" /><path
         d="m 8166.04,2907.37 -127.02,-490.95 c 0,0 -205.82,-97 -728.02,-35.45 -85.09,144.84 -186.67,818.16 -186.67,818.16 l 1041.71,-291.76"
         style="fill:#f88976;fill-opacity:1;fill-rule:nonzero;stroke:none"
         id="path66"
         inkscape:connector-curvature="0" /><path
         d="m 6197.93,5217.78 c -115.39,54.44 -625.51,-55.28 -625.51,-55.28 l 113.49,-1599.66 c 0,0 442.88,-64.21 626.36,44.5 183.53,108.59 291.11,388.31 259.12,839.62 -31.98,451.26 -258.07,716.4 -373.46,770.82"
         style="fill:#ea786a;fill-opacity:1;fill-rule:nonzero;stroke:none"
         id="path68"
         inkscape:connector-curvature="0" /><path
         d="m 5993.84,4388.6 c 31.38,-441.77 -106.43,-811.44 -307.93,-825.76 -201.37,-14.29 -390.05,332.21 -421.46,773.94 -31.29,441.79 106.56,811.46 307.97,825.72 201.46,14.26 390.1,-332.25 421.42,-773.9"
         style="fill:#f88976;fill-opacity:1;fill-rule:nonzero;stroke:none"
         id="path70"
         inkscape:connector-curvature="0" /><path
         d="m 5560.59,4138.86 c 2.56,-37.28 -25.45,-69.62 -62.63,-72.28 l -23.8,-1.66 c -37.18,-2.62 -69.53,25.45 -72.18,62.7 l -33.2,467.66 c -2.6,37.22 25.36,69.57 62.64,72.21 l 23.75,1.68 c 37.18,2.62 69.55,-25.41 72.18,-62.68 l 33.24,-467.63"
         style="fill:#d15c58;fill-opacity:1;fill-rule:nonzero;stroke:none"
         id="path72"
         inkscape:connector-curvature="0" /><path
         d="m 5825.45,4129.5 c 2.69,-37.21 -25.36,-69.55 -62.56,-72.22 l -23.72,-1.69 c -37.3,-2.62 -69.62,25.41 -72.25,62.69 l -33.15,467.62 c -2.65,37.22 25.4,69.56 62.54,72.2 l 23.82,1.7 c 37.2,2.67 69.54,-25.38 72.2,-62.64 l 33.12,-467.66"
         style="fill:#d15c58;fill-opacity:1;fill-rule:nonzero;stroke:none"
         id="path74"
         inkscape:connector-curvature="0" /><path
         d="m 6475.11,5508.97 c -44.1,-140.61 27.83,-288.39 160.72,-330.13 132.92,-41.7 276.48,38.43 320.59,179 44.16,140.62 -27.82,288.33 -160.76,330.11 -132.94,41.73 -276.43,-38.42 -320.55,-178.98"
         style="fill:#ffffff;fill-opacity:1;fill-rule:nonzero;stroke:none"
         id="path76"
         inkscape:connector-curvature="0" /><path
         d="m 6501.39,5500.75 c -34.5,-109.97 21.75,-225.48 125.63,-258.1 103.92,-32.63 216.06,29.99 250.67,139.92 34.41,109.94 -21.81,225.44 -125.72,258.11 -103.91,32.61 -216.06,-30.1 -250.58,-139.93"
         style="fill:#221f1f;fill-opacity:1;fill-rule:nonzero;stroke:none"
         id="path78"
         inkscape:connector-curvature="0" /><path
         d="m 6296.74,5538.25 c -48.57,-94.37 -138.74,-144.7 -201.45,-112.49 -62.71,32.33 -74.25,134.99 -25.72,229.33 48.58,94.36 138.76,144.71 201.44,112.44 62.74,-32.24 74.26,-134.93 25.73,-229.28"
         style="fill:#ffffff;fill-opacity:1;fill-rule:nonzero;stroke:none"
         id="path80"
         inkscape:connector-curvature="0" /><path
         d="m 6251.15,5561.22 c -37.98,-73.76 -108.49,-113.11 -157.55,-87.91 -49.05,25.24 -57.99,105.52 -20.06,179.25 37.96,73.76 108.5,113.1 157.56,87.94 48.97,-25.26 58,-105.46 20.05,-179.28"
         style="fill:#221f1f;fill-opacity:1;fill-rule:nonzero;stroke:none"
         id="path82"
         inkscape:connector-curvature="0" /><path
         d="m 6842.54,5519.39 c 0,-25.43 -20.64,-46.04 -46,-46.04 -25.38,0 -46,20.61 -46,46.04 0,25.4 20.62,45.97 46,45.97 25.36,0 46,-20.57 46,-45.97"
         style="fill:#ffffff;fill-opacity:1;fill-rule:nonzero;stroke:none"
         id="path84"
         inkscape:connector-curvature="0" /><path
         d="m 6233.35,5654.22 c -4.99,-11.75 -18.52,-17.16 -30.16,-12.16 -11.72,4.96 -17.18,18.43 -12.25,30.11 4.97,11.74 18.54,17.14 30.22,12.17 11.68,-4.93 17.15,-18.52 12.19,-30.12"
         style="fill:#ffffff;fill-opacity:1;fill-rule:nonzero;stroke:none"
         id="path86"
         inkscape:connector-curvature="0" /><path
         d="m 9799.62,7610.22 c -332.76,-572.68 -656.79,-1152.13 -838.14,-1764.54 -295.33,87.53 -590.2,175.05 -887.97,262.87 152.97,618.67 199.7,1245.28 331.57,1903.16 487.11,-77.26 943.95,-214.52 1394.54,-401.49"
         style="fill:#8bc543;fill-opacity:1;fill-rule:nonzero;stroke:none"
         id="path88"
         inkscape:connector-curvature="0" /><path
         d="m 9799.62,7610.22 -50.34,29.25 C 9416.29,7066.19 9089.65,6483.14 8905.65,5862.22 l 55.83,-16.54 16.54,55.83 c -295.31,87.52 -590.2,175.05 -888.04,262.88 l -16.47,-55.84 56.52,-13.98 c 77.25,312.46 127.4,625.63 174.76,942.25 47.34,316.63 91.88,636.71 157.38,963.45 l -57.09,11.44 -9.12,-57.5 c 482.12,-76.48 934.28,-212.28 1381.35,-397.77 l 22.31,53.78 -50.34,29.25 50.34,-29.25 22.32,53.78 c -454.13,188.44 -915.64,327.18 -1407.74,405.21 l -55.22,8.76 -10.99,-54.82 c -66.37,-331.14 -111.13,-653.3 -158.37,-969.11 -47.22,-315.84 -96.91,-625.3 -172.63,-931.52 l -13.37,-54.07 53.42,-15.75 c 297.71,-87.79 592.55,-175.3 887.89,-262.84 l 55.84,-16.55 16.54,55.84 c 178.7,603.88 500.12,1179.73 832.66,1751.82 l 33.42,57.53 -61.45,25.5 -22.32,-53.78"
         style="fill:#006738;fill-opacity:1;fill-rule:nonzero;stroke:none"
         id="path90"
         inkscape:connector-curvature="0" /><path
         d="m 8909.26,7264.61 c 264.21,-75.66 398.4,-301.13 307.88,-488.69 -91.16,-188.5 -323.33,-292.74 -533.18,-232.1 -208.77,61.31 -357.13,271.97 -325.52,474.51 32.35,201.59 286.49,320.31 550.82,246.28"
         style="fill:#006738;fill-opacity:1;fill-rule:nonzero;stroke:none"
         id="path92"
         inkscape:connector-curvature="0" /><path
         d="m 8073.51,6108.55 c 79.23,-23.37 158.12,-46.64 236.91,-70 37.23,130.16 -43.84,267.81 -181.95,307.2 -16.43,-79.35 -34.57,-158.42 -54.96,-237.2"
         style="fill:#006738;fill-opacity:1;fill-rule:nonzero;stroke:none"
         id="path94"
         inkscape:connector-curvature="0" /><path
         d="m 8699.8,7010.66 c -33.88,6.72 -57.31,-14.46 -70.05,-63.04 -12.93,-48.92 -4.09,-77.39 25.96,-85.71 18.37,-5.05 33.89,-1.05 46.53,12.33 12.96,13.3 31.38,42.08 56.35,86.44 25,44.31 53.95,74.01 87.22,88.8 33.07,14.75 71.1,16.15 113.09,3.83 48.96,-14.37 80.3,-43.34 92.92,-86.01 12.85,-42.64 9.71,-86.15 -7.82,-130.85 -42.51,-107.7 -112.81,-154.87 -211.83,-142.8 7.1,31.01 14.34,61.97 21.55,92.98 52.92,-8.09 89.61,16.57 110.86,74.16 19.88,54.02 7.62,87.8 -37.25,100.93 -19.84,5.75 -36.9,3.47 -50.98,-7.07 -14.03,-10.47 -35.02,-38.64 -61.76,-84.42 -26.78,-45.7 -54.54,-76.26 -83.38,-91.75 -28.92,-15.33 -59.65,-18.4 -93.07,-9.06 -35.53,9.99 -62.46,32.5 -80.72,67.62 -18.26,35.11 -21.5,79.71 -8.58,133.84 25.14,107.42 83.72,152.94 173.16,134.38 -7.45,-31.56 -14.82,-63.1 -22.2,-94.6"
         style="fill:#8bc543;fill-opacity:1;fill-rule:nonzero;stroke:none"
         id="path96"
         inkscape:connector-curvature="0" /><path
         d="m 8570.94,7016.17 c -7.09,-29.43 -14.25,-58.78 -21.28,-88.06 -31.55,8.42 -63.22,16.71 -95.11,24.97 6.29,29.45 12.58,58.84 18.83,88.42 32.86,-8.4 65.37,-16.86 97.56,-25.33"
         style="fill:#8bc543;fill-opacity:1;fill-rule:nonzero;stroke:none"
         id="path98"
         inkscape:connector-curvature="0" /><path
         d="m 9136.7,6854.19 c -11.88,-28.14 -23.6,-56.26 -35.24,-84.39 -30.87,9.41 -61.57,18.59 -92.27,27.74 10.84,28.46 21.81,56.88 32.89,85.35 31.47,-9.47 62.99,-19.04 94.62,-28.7"
         style="fill:#8bc543;fill-opacity:1;fill-rule:nonzero;stroke:none"
         id="path100"
         inkscape:connector-curvature="0" /><path
         d="m 8947.46,5849.83 c 24.02,78.17 49.78,155.84 77.13,233.06 -133.5,39.66 -273.97,-33.43 -312.48,-163.23 78.35,-23.3 156.86,-46.58 235.35,-69.83"
         style="fill:#006738;fill-opacity:1;fill-rule:nonzero;stroke:none"
         id="path102"
         inkscape:connector-curvature="0" /><path
         d="m 9778.06,7619.06 c -120.11,49.33 -240.24,95.1 -361.3,137.15 -58.52,-132.81 46.57,-287.57 236.72,-358.17 41.55,73.78 83.4,147.41 124.58,221.02"
         style="fill:#006738;fill-opacity:1;fill-rule:nonzero;stroke:none"
         id="path104"
         inkscape:connector-curvature="0" /><path
         d="m 8405.08,8011.71 c -16.07,-84.24 -31.25,-167.8 -45.66,-250.88 200.99,-36.44 386.45,36.88 428.01,176.88 -125.79,28.81 -253.26,53.61 -382.35,74"
         style="fill:#006738;fill-opacity:1;fill-rule:nonzero;stroke:none"
         id="path106"
         inkscape:connector-curvature="0" /><path
         d="m 8638.42,6388.63 c 46.77,-13.73 73.31,-60.64 59.74,-104.85 -13.69,-44.22 -61.2,-69.31 -106.61,-55.92 -45.46,13.35 -72.22,60.17 -60.14,104.74 12.35,44.51 60.23,69.61 107.01,56.03"
         style="fill:#006738;fill-opacity:1;fill-rule:nonzero;stroke:none"
         id="path108"
         inkscape:connector-curvature="0" /><path
         d="m 9020.94,7589.83 c 64.87,-18.54 102.29,-71.28 84.72,-116.56 -17.81,-45.24 -81.35,-66.91 -142.76,-49.68 -61.15,17.31 -99.99,68.06 -85.9,114.55 14.37,46.32 79.06,70.22 143.94,51.69"
         style="fill:#006738;fill-opacity:1;fill-rule:nonzero;stroke:none"
         id="path110"
         inkscape:connector-curvature="0" /><path
         d="m 9586.77,7926.21 c -247.19,-614.47 -484.91,-1234.39 -576.72,-1866.45 -304.77,44.32 -609.2,88.79 -916.43,132.98 62.78,634.18 19.21,1261.03 55.56,1931.03 493.13,-6.65 964.92,-77.12 1437.59,-197.56"
         style="fill:#8bc543;fill-opacity:1;fill-rule:nonzero;stroke:none"
         id="path112"
         inkscape:connector-curvature="0" /><path
         d="m 9586.77,7926.21 -54.01,21.73 C 9285.43,7332.86 9045.64,6709 8952.43,6068.13 l 57.62,-8.37 8.38,57.61 c -304.75,44.32 -609.2,88.8 -916.52,133 l -8.29,-57.63 57.94,-5.74 c 31.7,320.29 36.46,637.42 37.97,957.55 1.49,320.15 -0.27,643.31 17.79,976.06 l -58.14,3.16 -0.78,-58.22 c 488.06,-6.6 955.02,-76.28 1424,-195.76 l 14.37,56.42 -54.01,21.73 54.01,-21.73 14.38,56.42 c -476.38,121.39 -953,192.65 -1451.18,199.35 l -55.89,0.76 -3.03,-55.82 c -18.3,-337.24 -16.46,-662.5 -17.96,-981.82 -1.49,-319.34 -6.33,-632.73 -37.41,-946.63 l -5.49,-55.43 55.14,-7.93 c 307.15,-44.18 611.54,-88.64 916.34,-132.97 l 57.63,-8.38 8.37,57.63 c 90.41,623.24 326.07,1239.23 573.12,1853.09 l 24.83,61.73 -64.47,16.42 -14.38,-56.42"
         style="fill:#006738;fill-opacity:1;fill-rule:nonzero;stroke:none"
         id="path114"
         inkscape:connector-curvature="0" /><path
         d="m 8755.14,7456.55 c 272.4,-36.94 437.36,-240.95 374.67,-439.48 -63.16,-199.69 -278.1,-336.1 -494.33,-306.08 -215.47,30.72 -392.47,218.01 -390.17,422.97 3.07,204.15 237.59,358.02 509.83,322.59"
         style="fill:#006738;fill-opacity:1;fill-rule:nonzero;stroke:none"
         id="path116"
         inkscape:connector-curvature="0" /><path
         d="m 8093.62,6192.74 c 81.69,-11.77 163.13,-23.55 244.45,-35.33 18.21,134.09 -81.77,258.72 -224.08,277.95 -4.91,-80.85 -11.47,-161.73 -20.37,-242.62"
         style="fill:#006738;fill-opacity:1;fill-rule:nonzero;stroke:none"
         id="path118"
         inkscape:connector-curvature="0" /><path
         d="m 8584.22,7175.3 c -34.44,1.78 -54.64,-22.58 -60.36,-72.52 -5.75,-50.23 7.14,-77.09 38.04,-81.08 18.91,-2.34 33.62,3.89 44.27,18.95 10.92,15 25.04,46.11 43.37,93.6 18.37,47.4 42.87,80.94 73.62,100.35 30.64,19.32 68.09,26.13 111.33,19.96 50.53,-7.13 85.72,-31.41 104.32,-71.78 18.82,-40.36 21.95,-83.89 11.03,-130.61 -26.68,-112.75 -89.52,-169.4 -189.25,-171.66 2.68,31.66 5.26,63.31 8.03,95.05 53.55,-0.42 86.34,29.24 99.07,89.31 11.98,56.24 -4.91,87.99 -51.21,94.57 -20.53,2.83 -37.08,-1.88 -49.46,-14.31 -12.41,-12.4 -29.17,-43.29 -49.02,-92.38 -19.99,-49.09 -43.07,-83.33 -69.47,-102.76 -26.39,-19.35 -56.32,-26.74 -90.76,-22.32 -36.66,4.8 -66.52,23.2 -89.55,55.37 -23.15,32.15 -32.61,75.8 -27.66,131.26 9.44,109.89 60.94,163.36 152.07,157.8 -2.84,-32.33 -5.67,-64.63 -8.41,-96.8"
         style="fill:#8bc543;fill-opacity:1;fill-rule:nonzero;stroke:none"
         id="path120"
         inkscape:connector-curvature="0" /><path
         d="m 8455.94,7162.21 c -2.88,-30.12 -5.67,-60.15 -8.55,-90.17 -32.31,3.8 -64.85,7.5 -97.62,11.11 2,30.02 3.99,60.08 6.04,90.16 33.58,-3.59 66.96,-7.29 100.13,-11.1"
         style="fill:#8bc543;fill-opacity:1;fill-rule:nonzero;stroke:none"
         id="path122"
         inkscape:connector-curvature="0" /><path
         d="m 9039.03,7082.96 c -7.73,-29.54 -15.32,-59.02 -22.75,-88.54 -31.86,4.84 -63.63,9.57 -95.35,14.27 6.68,29.68 13.43,59.38 20.36,89.11 32.5,-4.84 65.05,-9.76 97.74,-14.84"
         style="fill:#8bc543;fill-opacity:1;fill-rule:nonzero;stroke:none"
         id="path124"
         inkscape:connector-curvature="0" /><path
         d="m 8995.6,6061.85 c 12.66,80.81 26.95,161.37 42.95,241.71 -137.75,20.15 -266.36,-72.28 -285.91,-206.32 80.97,-11.78 162.05,-23.54 242.96,-35.39"
         style="fill:#006738;fill-opacity:1;fill-rule:nonzero;stroke:none"
         id="path126"
         inkscape:connector-curvature="0" /><path
         d="m 9564.25,7931.81 c -125.93,31.68 -251.41,59.74 -377.24,84.02 -38.89,-139.88 87.26,-277.98 285.6,-320.53 30.59,78.94 61.4,157.83 91.64,236.51"
         style="fill:#006738;fill-opacity:1;fill-rule:nonzero;stroke:none"
         id="path128"
         inkscape:connector-curvature="0" /><path
         d="m 8149.18,8123.77 c -3.88,-85.7 -6.99,-170.54 -9.3,-254.83 204.21,-7.27 377.2,91.85 398.28,236.31 -128.58,10.54 -258.32,16.83 -388.98,18.52"
         style="fill:#006738;fill-opacity:1;fill-rule:nonzero;stroke:none"
         id="path130"
         inkscape:connector-curvature="0" /><path
         d="m 8612.55,6550.85 c 48.28,-6.85 81.27,-49.48 74.11,-95.24 -7.17,-45.65 -50.51,-77.28 -97.5,-70.59 -46.78,6.68 -80.07,49.22 -74.48,95.07 5.89,45.78 49.66,77.48 97.87,70.76"
         style="fill:#006738;fill-opacity:1;fill-rule:nonzero;stroke:none"
         id="path132"
         inkscape:connector-curvature="0" /><path
         d="m 8819.05,7794.48 c 66.93,-9.07 111.46,-55.94 100.53,-103.24 -10.99,-47.29 -70.92,-77.93 -134.17,-69.57 -62.93,8.34 -108.68,53.04 -101.41,101 7.65,47.9 68.24,80.79 135.05,71.81"
         style="fill:#006738;fill-opacity:1;fill-rule:nonzero;stroke:none"
         id="path134"
         inkscape:connector-curvature="0" /><path
         d="m 10990,2929.68 c -116.2,-392.13 -528.2,-615.94 -920.5,-499.85 -392.11,116.13 -615.88,528.19 -499.81,920.31 116.14,392.24 528.21,616.01 920.41,499.92 392.2,-116.14 615.9,-528.17 499.9,-920.38"
         style="fill:#e8af2e;fill-opacity:1;fill-rule:nonzero;stroke:none"
         id="path136"
         inkscape:connector-curvature="0" /><path
         d="m 10861.7,2967.66 c -95.3,-321.31 -432.8,-504.66 -754.1,-409.54 -321.38,95.15 -504.73,432.73 -409.57,754.06 95.13,321.35 432.77,504.73 754.07,409.62 321.3,-95.18 504.7,-432.82 409.6,-754.14"
         style="fill:#f9ca35;fill-opacity:1;fill-rule:nonzero;stroke:none"
         id="path138"
         inkscape:connector-curvature="0" /><path
         d="m 10453.7,3262.26 c 9.6,46.48 -25.4,81.72 -105.5,105.61 -80.1,24.06 -126.6,14.63 -139.5,-28.05 -7.9,-26.22 -0.7,-49.07 21.7,-68.58 22.3,-19.58 70.2,-48.57 143.8,-86.86 73.7,-38.45 123.5,-80.61 149.5,-126.71 26,-45.97 30.8,-97.19 13.9,-153.39 -19.6,-65.6 -64.2,-107.48 -133.5,-125.64 -69.4,-18.14 -141.8,-15.81 -217.6,6.84 -182.8,54.84 -266.08,156.12 -249.55,303.95 l 154.95,-33.19 c -10.8,-76.87 32.3,-129.82 129.3,-158.91 90.8,-27.19 145.4,-10.03 163.8,51.54 8.2,27.3 3.3,50.91 -14.8,70.84 -18,20.01 -65.4,50.12 -142,90.37 -76.6,40.37 -128.2,82.24 -154.5,125.75 -26.3,43.55 -32.2,89.57 -17.7,138.18 15.7,52.22 52.3,89.52 109.4,111.76 57.5,22.21 130.5,20.02 219.1,-6.59 175.7,-52.63 250.4,-138.49 224,-257.36 l -154.8,40.44"
         style="fill:#c38728;fill-opacity:1;fill-rule:nonzero;stroke:none"
         id="path140"
         inkscape:connector-curvature="0" /><path
         d="m 10458.7,3441.36 -144.1,43.25 39.3,131.14 144.3,-43.19 -39.5,-131.2"
         style="fill:#c38728;fill-opacity:1;fill-rule:nonzero;stroke:none"
         id="path142"
         inkscape:connector-curvature="0" /><path
         d="m 10224.2,2658.62 -144.2,43.3 39.2,131.18 144.2,-43.27 -39.2,-131.21"
         style="fill:#c38728;fill-opacity:1;fill-rule:nonzero;stroke:none"
         id="path144"
         inkscape:connector-curvature="0" /><path
         d="m 10810.6,3212.8 c 0,58.21 25.7,146.74 44.9,165.86 18.8,18.77 107.6,44.9 165.8,44.9 -58.2,0 -143.7,22.78 -165.8,44.9 -23.2,23.14 -44.9,107.62 -44.9,165.78 0,-59.57 -22.5,-143.36 -47.8,-168.59 -26.1,-26.17 -106.2,-42.09 -162.9,-42.09 58.2,0 144,-23.03 165.8,-44.9 22.2,-22.07 44.9,-107.65 44.9,-165.86"
         style="fill:#ffffff;fill-opacity:1;fill-rule:nonzero;stroke:none"
         id="path146"
         inkscape:connector-curvature="0" /><path
         d="m 10951.3,3180.19 c 0,20.74 9.1,52.2 16,59.06 6.7,6.66 38.3,15.95 59,15.98 -20.7,-0.03 -51.2,8.09 -59,15.94 -8.3,8.25 -16,38.33 -16,59.05 0,-21.22 -8,-51.04 -17,-60.05 -9.3,-9.26 -37.8,-14.94 -58,-14.94 20.7,0 51.2,-8.23 59,-15.98 7.8,-7.89 16,-38.32 16,-59.06"
         style="fill:#ffffff;fill-opacity:1;fill-rule:nonzero;stroke:none"
         id="path148"
         inkscape:connector-curvature="0" /><path
         d="m 10676.7,3021.54 c 0,28.71 12.7,72.43 22.2,81.95 9.3,9.25 53.2,22.16 81.9,22.16 -28.7,0 -71,11.22 -81.9,22.15 -11.4,11.47 -22.2,53.16 -22.2,81.9 0,-29.42 -11,-70.8 -23.5,-83.28 -12.9,-12.93 -52.5,-20.77 -80.5,-20.77 28.8,0 71.1,-11.4 81.9,-22.16 10.9,-10.98 22.1,-53.24 22.1,-81.95"
         style="fill:#ffffff;fill-opacity:1;fill-rule:nonzero;stroke:none"
         id="path150"
         inkscape:connector-curvature="0" /><path
         d="m 9358.2,6260.44 c 12.25,-35.51 12.54,-62.69 12.54,-62.69 0,0 -584.31,322.97 -1403.43,259.22 -1.84,19.19 -6.75,39.98 -13.02,60.26 -20.4,-5.17 -40.01,-10.97 -58.87,-17.21 l 97.66,-697.59 c 152.22,-88.46 343.87,-164.26 558.02,-214.27 563.24,-131.55 1068.06,-35.18 1127.57,215.24 35.09,147.99 -93.28,316.68 -320.47,457.04"
         style="fill:#f88976;fill-opacity:1;fill-rule:nonzero;stroke:none"
         id="path152"
         inkscape:connector-curvature="0" /></g></g></svg>