<?xml version="1.0" encoding="UTF-8" standalone="no"?>
<!-- Created with Inkscape (http://www.inkscape.org/) -->

<svg
   xmlns:dc="http://purl.org/dc/elements/1.1/"
   xmlns:cc="http://creativecommons.org/ns#"
   xmlns:rdf="http://www.w3.org/1999/02/22-rdf-syntax-ns#"
   xmlns:svg="http://www.w3.org/2000/svg"
   xmlns="http://www.w3.org/2000/svg"
   xmlns:sodipodi="http://sodipodi.sourceforge.net/DTD/sodipodi-0.dtd"
   xmlns:inkscape="http://www.inkscape.org/namespaces/inkscape"
   width="500"
   height="500"
   viewBox="0 0 500.00001 500.00001"
   id="svg35268"
   version="1.1"
   inkscape:version="0.91 r13725"
   sodipodi:docname="teacher.svg">
  <defs
     id="defs35270" />
  <sodipodi:namedview
     id="base"
     pagecolor="#ffffff"
     bordercolor="#666666"
     borderopacity="1.0"
     inkscape:pageopacity="0.0"
     inkscape:pageshadow="2"
     inkscape:zoom="1.4"
     inkscape:cx="320.35422"
     inkscape:cy="240.19707"
     inkscape:document-units="px"
     inkscape:current-layer="layer2"
     showgrid="false"
     units="px"
     inkscape:window-width="1366"
     inkscape:window-height="708"
     inkscape:window-x="0"
     inkscape:window-y="0"
     inkscape:window-maximized="1" />
  <metadata
     id="metadata35273">
    <rdf:RDF>
      <cc:Work
         rdf:about="">
        <dc:format>image/svg+xml</dc:format>
        <dc:type
           rdf:resource="http://purl.org/dc/dcmitype/StillImage" />
        <dc:title></dc:title>
      </cc:Work>
    </rdf:RDF>
  </metadata>
  <g
     inkscape:groupmode="layer"
     id="layer3"
     inkscape:label="Layer 3">
    <path
       d="m 434.81502,99.692219 c 30.78647,43.290141 50.10893,96.587461 53.60986,150.396851 0.70062,10.76279 0.76684,21.54607 0.16233,32.25652 -0.17727,71.57518 -36.12011,115.92362 -86.34012,141.15438 -10.04357,5.04342 -20.65959,9.32442 -31.66652,12.86119 -15.87919,4.65652 -32.97803,8.66667 -50.85012,11.98954 -15.0675,2.76978 -30.72453,5.43712 -46.69557,7.61294 -15.97103,2.1735 -32.25819,3.85076 -48.57954,4.64058 C 129.83599,473.62238 14.093537,419.53305 5.9723832,304.86576 1.9096664,250.77868 16.124895,201.01813 42.521845,153.41968 50.643009,138.2735 62.826859,125.29397 72.979371,112.31216 93.284391,90.677337 117.65213,73.369018 141.76141,58.848701 c 12.00443,-6.754914 24.49375,-12.583526 37.33765,-17.460805 38.52529,-14.625014 80.23538,-20.683499 121.38369,-17.23321 13.48898,1.324581 26.86688,3.582275 39.82185,7.114505 25.90567,7.068985 50.11961,19.238288 70.11705,39.250391 8.66156,8.798678 16.81903,18.530481 24.39337,29.172637"
       style="fill:#e6e6e6;fill-opacity:0.94117647;fill-rule:nonzero;stroke:none"
       id="path84"
       inkscape:connector-curvature="0" />
  </g>
  <g
     inkscape:groupmode="layer"
     id="layer2"
     inkscape:label="Layer 2">
    <path
       d="m 83.087967,290.56593 383.346853,0 0,-235.710722 -383.346853,0 0,235.710722 m 396.019603,12.67274 -408.692129,0 0,-261.056199 408.692129,0 0,261.056199"
       style="fill:#e0a464;fill-opacity:1;fill-rule:nonzero;stroke:none"
       id="path18"
       inkscape:connector-curvature="0" />
    <path
       d="m 466.43482,54.868358 0,235.697572 12.67275,12.67274 0,-261.056199 -12.67275,12.685887"
       style="fill:#b47e46;fill-opacity:1;fill-rule:nonzero;stroke:none"
       id="path20"
       inkscape:connector-curvature="0" />
    <path
       d="m 70.415441,42.182471 0,261.056199 12.672526,-12.67274 0,-235.697572 -12.672526,-12.685887"
       style="fill:#b47e46;fill-opacity:1;fill-rule:nonzero;stroke:none"
       id="path22"
       inkscape:connector-curvature="0" />
    <path
       d="m 466.43482,290.56593 -383.346853,0 0,-0.0197 -12.672526,12.69246 408.692129,0 -12.67275,-12.67273"
       style="fill:#f1b36b;fill-opacity:1;fill-rule:nonzero;stroke:none"
       id="path24"
       inkscape:connector-curvature="0" />
    <path
       d="m 466.43482,54.868358 0,-0.01315 -383.346853,0 0,0.01315 -2.534383,-2.537066 0,-0.01094 388.415566,0 0,0.01094 -2.53433,2.537066"
       style="fill:#d4894b;fill-opacity:1;fill-rule:nonzero;stroke:none"
       id="path26"
       inkscape:connector-curvature="0" />
    <path
       d="m 468.96915,293.10026 0,0 -2.53433,-2.53433 0,-235.697572 2.53433,-2.537066 0,240.768968"
       style="fill:#aa6836;fill-opacity:1;fill-rule:nonzero;stroke:none"
       id="path28"
       inkscape:connector-curvature="0" />
    <path
       d="m 80.553584,293.08491 0,-240.753618 2.534383,2.537066 0,83.294302 c -8.73e-4,0.005 -8.73e-4,0.009 0,0.0121 l 0,152.37149 -2.534383,2.53871"
       style="fill:#aa6836;fill-opacity:1;fill-rule:nonzero;stroke:none"
       id="path30"
       inkscape:connector-curvature="0" />
    <path
       d="m 468.96915,293.10026 -278.2892,0 c -0.27776,-0.87436 -0.55059,-1.71914 -0.81793,-2.53433 l 3.41745,0 0.94284,0 7.92238,0 0.78999,0 2.00183,0 0.55716,0 4.01405,0 3.85355,0 0.80204,0 0.37582,0 0.0328,0 0.82013,0 5.5765,0 3,0 0.12108,0 5.96328,0 0.45582,0 7.97058,0 0.58401,0 1.08034,0 1.20636,0 2.58746,0 44.08507,0 5.20726,0 5.70252,0 19.214,0 2.76607,0 4.07761,0 1.86212,0 0.30077,0 3.88258,0 0.64536,0 4.74214,0 1.33893,0 54.2399,0 4.87308,0 0.61085,0 0.12217,0 0.41582,0 12.64152,0 0.5062,0 1.08364,0 0.3057,0 0.6689,0 0.5769,0 1.47861,0 51.14954,0 2.53433,2.53433 m -309.17504,0 -79.240529,0 0,-0.0154 2.534383,-2.5387 0,0.0197 3.961185,0 0.49865,0 0.612056,0 40.025255,0 0.62564,0 0.80643,0 0.0131,0 0.77629,0 14.36833,0 15.76093,0 c -0.24269,0.81957 -0.49031,1.66434 -0.74177,2.53433"
       style="fill:#e59550;fill-opacity:1;fill-rule:nonzero;stroke:none"
       id="path32"
       inkscape:connector-curvature="0" />
    <rect
       style="opacity:1;fill:#374548;fill-opacity:1;stroke:#c8c8c8;stroke-width:12.7214613;stroke-miterlimit:4;stroke-dasharray:none;stroke-opacity:0"
       id="rect36046"
       width="384.31662"
       height="236.61467"
       x="82.54583"
       y="54.014091" />
  </g>
  <g
     inkscape:label="Layer 1"
     inkscape:groupmode="layer"
     id="layer1"
     transform="translate(0,-552.36216)">
    <path
       d="m 134.33665,573.29303 c 0,0 29.91443,-8.5283 50.25294,13.23434 47.7158,51.06141 24.27413,96.36254 3.31499,116.66132 -8.87751,8.59698 -21.38116,13.49252 -47.22341,14.61629 -25.85965,1.12457 -39.39272,-5.469 -51.720115,-10.11961 C 65.628624,698.884 50.596933,695.34143 68.204658,610.12129 76.253006,571.16799 121.3936,569.69833 134.33665,573.29303"
       style="fill:#792b19;fill-opacity:1;fill-rule:nonzero;stroke:none"
       id="path19498"
       inkscape:connector-curvature="0" />
    <path
       d="m 73.397275,824.21181 c 0,0 -9.479111,15.87328 -1.20237,31.18882 0,0 3.20163,6.13428 5.760287,3.64103 0,0 1.287604,0.32353 2.292199,-0.78117 1.00625,-1.10555 -0.06372,-1.9943 -0.06372,-1.9943 0,0 1.012043,0.46421 1.942163,-0.68187 0.930119,-1.14692 -0.06538,-2.43783 -0.623115,-3.28274 -0.556086,-0.84818 -5.717256,-9.29953 -2.624857,-10.95289 2.019121,-1.08073 3.147843,1.55158 3.356375,2.05966 0.208532,0.50727 1.888375,3.742 3.85619,2.92691 1.970297,-0.81511 -0.350036,-5.62706 -2.126697,-8.32888 -1.776661,-2.70016 -3.257901,-7.4393 -2.643062,-12.77342 l -7.923395,-1.02115"
       style="fill:#efd5ae;fill-opacity:1;fill-rule:nonzero;stroke:none"
       id="path19502"
       inkscape:connector-curvature="0" />
    <path
       d="m 74.466416,815.80432 c 0,0 0,5.2009 -3.17846,8.95778 0,0 7.224977,2.8905 12.715496,1.44484 0,0 -1.733631,-3.46727 -1.44483,-9.24741 l -8.092206,-1.15521"
       style="fill:#ffffff;fill-opacity:1;fill-rule:nonzero;stroke:none"
       id="path19508"
       inkscape:connector-curvature="0" />
    <path
       d="m 116.94657,701.36734 c 0,0 -4.04569,1.44484 -7.51378,7.51378 -3.46726,6.06895 -31.499113,58.37494 -36.700005,108.36804 0,0 2.890488,3.17846 11.559467,2.02243 0,0 10.69141,-58.95253 30.342258,-97.09737 0,0 6.06895,-12.13707 2.31206,-20.80688"
       style="fill:#385471;fill-opacity:1;fill-rule:nonzero;stroke:none"
       id="path19510"
       inkscape:connector-curvature="0" />
    <path
       d="m 294.57623,777.51303 c 0.7431,1.42413 2.80608,4.81609 -0.54036,4.5546 -2.15649,-0.17295 -3.00386,-3.03944 -3.97535,-4.69776 -1.09232,-1.86686 -1.72537,-3.86116 -2.8483,-5.65106 -0.17791,0.0232 -0.33596,0.048 -0.50974,0.0968 -0.19942,0.9955 2.46598,5.70402 -0.43361,5.23482 -1.89996,-0.30534 -1.89665,-4.404 -2.18462,-5.91586 -0.90447,-4.77223 -4.10941,-9.34257 -9.15473,-13.00264 -1.42497,-1.03355 -1.35144,-1.42813 -1.65585,-3.29762 -0.18051,-1.10871 0.92267,-3.73537 1.5433,-4.06555 l 1.98603,-0.95825 c 2.94261,0.14977 5.45989,0.79358 8.47617,0.39058 2.49246,-0.32686 4.88065,-1.11797 7.34248,-1.69391 2.87394,-0.67442 4.97498,0.51637 3.75937,3.5947 -0.65787,1.65749 -7.36813,1.72867 -2.89132,5.65602 1.44484,1.26774 3.72048,3.59718 5.07511,4.95016 2.19539,2.1871 4.06638,3.99355 6.02345,6.65813 1.19739,1.62605 1.02114,3.22563 0.20688,3.90419 -0.81511,0.67938 -2.19373,-0.60988 -2.87726,-1.06998 -1.84369,-1.24374 -3.78419,-3.8537 -5.70319,-4.98739 -0.5387,-0.31859 -0.80516,-0.42617 -1.54082,0.17792 -0.27969,0.89536 3.24632,4.01093 4.70274,5.72718 1.07906,1.27684 3.70641,3.93894 3.11225,5.6345 -1.68564,4.80204 -8.07483,-6.14424 -9.29457,-6.72847 -0.26232,-0.12412 -0.53871,-0.33762 -0.78117,-0.47664 -0.80516,0.31362 1.57724,4.84424 2.16311,5.96551"
       style="fill:#efd5ae;fill-opacity:1;fill-rule:nonzero;stroke:none"
       id="path19514"
       inkscape:connector-curvature="0"
       sodipodi:nodetypes="ccccccccsccccccccccccccccc" />
    <path
       d="m 265.42153,756.57302 c 0,0 5.18962,0.34239 8.7291,3.76128 0,0 3.35987,-7.019 2.27881,-12.59278 0,0 -3.57388,1.5016 -9.32247,0.8329 l -1.68544,7.9986"
       style="fill:#ffffff;fill-opacity:1;fill-rule:nonzero;stroke:none"
       id="path19508-3"
       inkscape:connector-curvature="0" />
    <path
       d="m 151.33533,699.34492 c 0,0 2.88884,11.58346 8.71697,15.44048 5.82898,3.85784 56.18535,35.25765 105.72994,43.72389 0,0 3.36133,-2.67534 2.7763,-11.40224 0,0 -54.70908,-13.26083 -91.50342,-35.33544 -7.22497,-4.33531 -16.82325,-15.60681 -25.71979,-12.42669"
       style="fill:#385471;fill-opacity:1;fill-rule:nonzero;stroke:none"
       id="path19518"
       inkscape:connector-curvature="0" />
    <path
       d="m 138.6488,875.20456 c 0,0 4.78383,95.44985 1.00046,120.79228 0,0 -0.28962,6.26506 2.41384,16.78246 0,0 0.35252,0.2251 0.8515,0.115 l 1.89831,-9.5644 c 0,0 6.48601,6.8102 9.36409,8.9701 2.37908,1.784 9.84652,3.4146 19.0691,0.2037 0,0 -0.71828,-1.7636 -5.51534,-3.5625 -2.84664,-1.0668 -15.46448,-6.9388 -18.78444,-19.63194 -3.31832,-12.69135 12.23637,-112.4251 13.78628,-121.43171 l -24.36847,4.04652 0.28467,3.28025"
       style="fill:#efd5ae;fill-opacity:1;fill-rule:nonzero;stroke:none"
       id="path19520"
       inkscape:connector-curvature="0" />
    <path
       d="m 154.177,1012.3003 c 1.71211,1.2843 6.0706,2.4782 11.8135,1.8545 2.0514,-0.268 4.09948,-0.6818 6.01268,-1.2539 0.41211,-0.1264 0.82338,-0.2521 1.24292,-0.3969 0,0 -0.71828,-1.7637 -5.51534,-3.5625 -0.65125,-0.2434 -1.81473,-0.7416 -3.2579,-1.5112 -2.41715,1.396 -6.69289,1.5351 -10.98187,-1.2619 -4.64729,-3.0295 -11.00586,-7.76926 -13.84834,-9.91426 -0.0198,1.256 0.0298,7.22256 2.42045,16.52516 0,0 0.39224,0.3442 0.8515,0.115 l 1.89831,-9.5644 c 0,0 6.48601,6.8102 9.36409,8.9701"
       style="fill:#1e364a;fill-opacity:1;fill-rule:nonzero;stroke:none"
       id="path19522"
       inkscape:connector-curvature="0" />
    <path
       d="m 157.11797,698.40239 -9.54283,-4.10196 -7.73721,-1.79405 -3.37293,0 -9.00246,2.42543 -11.3079,8.47949 c -7.84892,23.57654 -1.33312,36.03716 1.4771,46.15676 2.81105,10.11961 8.99585,32.60633 8.99585,32.60633 l 9.83741,3.37291 3.37293,0 9.83825,-3.37291 c 0,0 6.1848,-22.48672 8.99502,-32.60633 2.81105,-10.1196 6.29567,-27.58913 -1.55323,-51.16567"
       style="fill:#e8ead8;fill-opacity:1;fill-rule:nonzero;stroke:none"
       id="path19524"
       inkscape:connector-curvature="0" />
    <path
       d="m 138.35669,875.20456 c 0,0 -4.783,95.44985 -1.00046,120.79228 0,0 0.28963,6.26506 -2.41384,16.78246 0,0 -0.35251,0.2251 -0.85067,0.115 l -1.89831,-9.5644 c 0,0 -6.48601,6.8102 -9.36491,8.9701 -2.37909,1.784 -9.84653,3.4146 -19.06828,0.2037 0,0 0.71828,-1.7636 5.51534,-3.5625 2.84663,-1.0668 15.46365,-6.9388 18.78361,-19.63194 3.31831,-12.69135 -12.23636,-112.4251 -13.78546,-121.43171 l 24.36847,4.04652 -0.28549,3.28025"
       style="fill:#efd5ae;fill-opacity:1;fill-rule:nonzero;stroke:none"
       id="path19526"
       inkscape:connector-curvature="0" />
    <path
       d="m 122.8285,1012.3003 c -1.71212,1.2843 -6.06978,2.4782 -11.81352,1.8545 -2.05056,-0.268 -4.09864,-0.6818 -6.01267,-1.2539 -0.41127,-0.1264 -0.82337,-0.2521 -1.24209,-0.3969 0,0 0.71828,-1.7637 5.51534,-3.5625 0.65042,-0.2434 1.81473,-0.7416 3.2579,-1.5112 2.41633,1.396 6.69289,1.5351 10.98187,-1.2619 4.64728,-3.0295 11.00586,-7.76926 13.84752,-9.91426 0.0207,1.256 -0.029,7.22256 -2.42046,16.52516 0,0 -0.39224,0.3442 -0.85067,0.115 l -1.89831,-9.5644 c 0,0 -6.48601,6.8102 -9.36491,8.9701"
       style="fill:#1e364a;fill-opacity:1;fill-rule:nonzero;stroke:none"
       id="path19528"
       inkscape:connector-curvature="0" />
    <path
       d="m 143.22989,677.06259 0.20274,20.69434 c 0,0 0.21184,1.62523 -4.45531,1.82797 0,0 -3.54918,0.39471 -4.06555,-1.82797 -1.57309,-6.76489 0.40631,-21.10064 0.40631,-21.10064 l 7.91181,0.4063"
       style="fill:#de9f4f;fill-opacity:1;fill-rule:nonzero;stroke:none"
       id="path19532"
       inkscape:connector-curvature="0" />
    <path
       d="m 132.82314,592.69065 c 0,0 47.71663,2.46515 53.82695,39.73531 7.34662,44.8071 -37.33305,55.79559 -48.69391,55.3901 -11.36252,-0.40548 -39.566493,-4.4644 -45.448423,-23.13051 0,0 -7.305246,6.08715 -11.566087,-5.47728 -4.260841,-11.56526 1.217265,-24.14505 10.754301,-11.15978 0,0 -3.042749,-4.86906 5.680845,-12.57895 8.724424,-7.7099 33.619184,-13.56205 35.446324,-42.77889"
       style="fill:#efd5ae;fill-opacity:1;fill-rule:nonzero;stroke:none"
       id="path19534"
       inkscape:connector-curvature="0" />
    <path
       d="m 108.94125,664.48281 c 0,-3.6973 2.99723,-6.69537 6.6962,-6.69537 3.69813,0 6.69537,2.99807 6.69537,6.69537 0,3.69813 -2.99724,6.6962 -6.69537,6.6962 -3.69897,0 -6.6962,-2.99807 -6.6962,-6.6962"
       style="fill:#f5ab80;fill-opacity:1;fill-rule:nonzero;stroke:none"
       id="path19536"
       inkscape:connector-curvature="0" />
    <path
       d="m 168.38945,658.19374 c 0,-3.69814 2.99724,-6.69619 6.69455,-6.69619 3.69896,0 6.69703,2.99805 6.69703,6.69619 0,3.69731 -2.99807,6.69538 -6.69703,6.69538 -3.69731,0 -6.69455,-2.99807 -6.69455,-6.69538"
       style="fill:#f5ab80;fill-opacity:1;fill-rule:nonzero;stroke:none"
       id="path19538"
       inkscape:connector-curvature="0" />
    <path
       d="m 108.9007,647.28552 c -0.35335,-1.58716 1.26443,-2.94427 2.56031,-3.34644 0.11917,-0.0373 0.24081,-0.0645 0.36245,-0.0952 0.71414,-0.44686 1.54744,-0.43527 2.29882,-0.13075 0.75138,0.13324 1.45228,0.46258 1.98602,1.09894 0.93012,1.113 0.60408,2.29302 -0.24991,3.17349 -1.5251,2.3915 -6.2692,2.38736 -6.95769,-0.70008"
       style="fill:#241611;fill-opacity:1;fill-rule:nonzero;stroke:none"
       id="path19540"
       inkscape:connector-curvature="0" />
    <path
       d="m 97.669755,618.73566 c 0,0 10.099745,-11.28308 14.569945,-8.15014 4.47268,3.13378 -5.20089,4.53144 -6.53815,5.04863 -1.33808,0.51719 -7.119053,1.64178 -8.031795,3.10151"
       style="fill:#9b3f2d;fill-opacity:1;fill-rule:nonzero;stroke:none"
       id="path19544"
       inkscape:connector-curvature="0" />
    <path
       d="m 113.78714,646.92639 -0.0364,-0.0554 -0.0488,-0.0836 c -0.0331,-0.067 -0.0596,-0.13818 -0.072,-0.21845 l 0.002,-0.10671 0.002,-0.0397 c 0.002,-0.11166 0.0207,-0.21349 0.0596,-0.30369 l 0.0381,-0.0828 0.043,-0.0752 0.14067,-0.16881 c 0.0861,-0.0711 0.18206,-0.10925 0.28136,-0.13158 l 0.091,-0.0224 c 0.13736,-0.0571 0.27721,-0.058 0.40961,-0.006 0.22426,0.0455 0.43279,0.16964 0.56519,0.40631 0.30535,0.54532 -0.077,0.98887 -0.56105,1.11714 -0.2557,0.0902 -0.52795,0.0588 -0.73731,-0.0761 l -0.0157,-0.006 -0.0157,-0.0123 -0.0679,-0.0563 -0.0778,-0.0786"
       style="fill:#ffffff;fill-opacity:1;fill-rule:nonzero;stroke:none"
       id="path19546"
       inkscape:connector-curvature="0" />
    <path
       d="m 111.63562,646.23542 c -0.15723,-0.23088 -0.0952,-0.60408 0.14067,-0.73152 0.18123,-0.15143 0.44603,-0.19694 0.60077,0.0463 l 0.0828,0.14316 0.0256,0.0388 0.0637,0.15225 0.003,0.0397 c 0.009,0.0819 -0.008,0.16218 -0.0588,0.23418 l -0.009,0.0173 -0.0472,0.0563 c -0.11253,0.29045 -0.43858,0.30039 -0.6438,0.13405 l -0.0314,-0.0248 -0.002,-10e-4 -0.12412,-0.10429"
       style="fill:#ffffff;fill-opacity:1;fill-rule:nonzero;stroke:none"
       id="path19548"
       inkscape:connector-curvature="0" />
    <path
       d="m 112.70476,647.49737 -0.0819,0.067 c 0.23997,-0.32686 0.50229,-0.12578 0.58753,0.12086 0.0513,0.0927 0.0488,0.19861 0.005,0.28797 l -0.002,10e-4 c -0.0612,0.12496 -0.20026,0.21351 -0.38645,0.1622 l -0.10344,-0.029 c -0.30452,-0.0852 -0.24494,-0.48327 -0.019,-0.6107"
       style="fill:#ffffff;fill-opacity:1;fill-rule:nonzero;stroke:none"
       id="path19550"
       inkscape:connector-curvature="0" />
    <path
       d="m 163.64452,638.07121 c -0.35335,-1.58798 1.26443,-2.94509 2.56114,-3.34726 0.11831,-0.0373 0.24081,-0.0645 0.36162,-0.0944 0.71497,-0.44767 1.54827,-0.43526 2.29965,-0.13156 0.75055,0.13322 1.45145,0.46258 1.98601,1.09892 0.93013,1.113 0.60408,2.29303 -0.24989,3.17351 -1.52511,2.39232 -6.26922,2.38818 -6.95853,-0.69926"
       style="fill:#241611;fill-opacity:1;fill-rule:nonzero;stroke:none"
       id="path19552"
       inkscape:connector-curvature="0" />
    <path
       d="m 168.53096,637.71125 -0.0356,-0.0554 -0.0496,-0.0828 c -0.0322,-0.067 -0.0588,-0.1382 -0.0711,-0.21929 l 0.002,-0.10671 6.5e-4,-0.0397 c 0.001,-0.11166 0.0207,-0.21349 0.0605,-0.30369 l 0.0381,-0.0819 0.0431,-0.0752 0.13984,-0.1688 c 0.086,-0.0711 0.18289,-0.1101 0.28135,-0.1324 l 0.091,-0.0224 c 0.1382,-0.0571 0.27805,-0.0571 0.40962,-0.006 0.22508,0.0455 0.43278,0.16881 0.56602,0.40547 0.30535,0.54698 -0.077,0.99053 -0.56189,1.1188 -0.25487,0.0894 -0.52794,0.058 -0.73648,-0.0769 l -0.0157,-0.006 -0.0157,-0.0125 -0.0679,-0.0562 -0.0786,-0.0786"
       style="fill:#ffffff;fill-opacity:1;fill-rule:nonzero;stroke:none"
       id="path19554"
       inkscape:connector-curvature="0" />
    <path
       d="m 166.38027,637.02028 c -0.15723,-0.23087 -0.0961,-0.60408 0.14067,-0.73151 0.1804,-0.15227 0.44603,-0.19696 0.60077,0.0463 l 0.0819,0.14315 0.0265,0.0388 0.0637,0.15226 0.002,0.0397 c 0.008,0.0819 -0.007,0.16219 -0.0588,0.23418 l -0.008,0.0174 -0.048,0.0554 c -0.11167,0.29128 -0.43776,0.30204 -0.64298,0.13406 l -0.0315,-0.024 -0.002,-0.002 -0.12413,-0.10428"
       style="fill:#ffffff;fill-opacity:1;fill-rule:nonzero;stroke:none"
       id="path19556"
       inkscape:connector-curvature="0" />
    <path
       d="m 167.44857,638.28306 -0.0819,0.0662 c 0.2408,-0.32604 0.50312,-0.12578 0.58835,0.12086 0.0513,0.0927 0.0488,0.1986 0.004,0.28798 l -6.6e-4,10e-4 c -0.0612,0.12495 -0.20108,0.2135 -0.38645,0.16219 l -0.10344,-0.029 c -0.30452,-0.0853 -0.24494,-0.48327 -0.0198,-0.60987"
       style="fill:#ffffff;fill-opacity:1;fill-rule:nonzero;stroke:none"
       id="path19558"
       inkscape:connector-curvature="0" />
    <path
       d="m 99.861825,645.58417 c 0.945015,0.403 1.865205,0.59746 2.768015,0.64546 l -0.14067,-0.12247 c -0.46424,-0.45513 -0.78779,-0.5354 -0.78614,-1.10638 -0.0753,-0.0537 -0.13571,-0.12496 -0.12992,-0.22426 l 0.01,-0.17708 c 0.0174,-0.29543 0.40796,-0.3426 0.50478,-0.0679 l -0.0439,-0.0596 c 0.14813,-0.0109 0.27556,0.10925 0.31694,0.24246 0.0993,0.31529 1.25699,0.94585 1.50772,0.93922 0.38562,-0.01 1.22968,0.2284 1.57144,0.11336 0.52298,-0.17791 1.08817,-0.2375 1.6335,-0.3401 1.39849,-0.52133 2.78374,-1.22223 4.18057,-1.89251 1.54579,-0.74062 3.16026,-1.20072 4.87155,-1.30168 1.70549,-0.10175 3.34479,0.75469 4.92036,1.27188 0.51719,0.16964 0.45761,1.03604 -0.13488,0.98971 -2.08615,-0.16219 -3.74862,-1.19245 -5.94234,-0.86558 -2.09111,0.31115 -4.073,1.48289 -6.00357,2.37826 -0.39969,0.21846 -0.88461,0.4303 -1.40015,0.60491 -2.58596,1.03853 -6.3172,2.10187 -8.313978,-0.23584 -0.388929,-0.45513 0.09103,-1.01453 0.610702,-0.79192"
       style="fill:#341b18;fill-opacity:1;fill-rule:nonzero;stroke:none"
       id="path19560"
       inkscape:connector-curvature="0" />
    <path
       d="m 182.00693,632.68166 c -0.78365,0.66035 -1.60784,1.11466 -2.45687,1.42497 l 0.0985,-0.15888 c 0.31031,-0.57016 0.59746,-0.74228 0.42782,-1.28678 0.0563,-0.0737 0.0944,-0.15972 0.0596,-0.25239 l -0.0621,-0.16716 c -0.10344,-0.27721 -0.48823,-0.20853 -0.50146,0.0819 l 0.0248,-0.0696 c -0.14399,0.0331 -0.23336,0.18536 -0.23336,0.32521 -0.004,0.33018 -0.92599,1.27188 -1.16762,1.33891 -0.37238,0.10259 -1.10968,0.57761 -1.46965,0.56602 -0.55195,-0.0166 -1.10969,0.091 -1.66163,0.15309 -1.49035,-0.091 -3.01876,-0.35665 -4.55213,-0.59001 -1.69309,-0.25653 -3.37293,-0.22509 -5.03871,0.17707 -1.66081,0.40218 -2.97902,1.69971 -4.33531,2.65466 -0.44272,0.31279 -0.13405,1.12375 0.41872,0.90778 1.94712,-0.76628 3.23639,-2.23593 5.43259,-2.56528 2.08863,-0.3128 4.32622,0.22921 6.43472,0.52216 0.44519,0.0935 0.97232,0.15308 1.51599,0.16963 2.77463,0.23832 6.65564,0.16551 7.88119,-2.65299 0.23914,-0.54864 -0.38149,-0.94418 -0.8151,-0.57842"
       style="fill:#341b18;fill-opacity:1;fill-rule:nonzero;stroke:none"
       id="path19562"
       inkscape:connector-curvature="0" />
    <path
       d="m 85.343188,668.19088 c 0,-2.50901 2.034015,-4.54303 4.542194,-4.54303 2.509006,0 4.543022,2.03402 4.543022,4.54303 0,2.509 -2.034016,4.54301 -4.543022,4.54301 -2.508179,0 -4.542194,-2.03401 -4.542194,-4.54301"
       style="fill:#244256;fill-opacity:1;fill-rule:nonzero;stroke:none"
       id="path19564"
       inkscape:connector-curvature="0" />
    <path
       d="m 158.33275,664.54487 c 0,0 -4.58771,1.48042 -6.95687,1.62854 -3.25459,0.20274 -4.73666,1.33229 -5.0329,2.51645 0,0 -1.42497,-1.70715 -4.14499,-1.48042 -3.55333,0.29626 -5.92165,0.44438 -10.06664,-0.88873 0,0 2.36501,12.33567 12.73039,12.14037 7.8456,-0.14812 11.696,-9.47497 13.47101,-13.91621"
       style="fill:#9d1a24;fill-opacity:1;fill-rule:nonzero;stroke:none"
       id="path19566"
       inkscape:connector-curvature="0" />
    <path
       d="m 147.21848,647.93429 c -1.63515,-1.58715 -2.13497,-3.96955 -2.51728,-6.08633 -0.0455,-0.24741 0.31776,-0.44767 0.43361,-0.18453 0.69759,1.58054 1.14942,3.1495 2.06464,4.65226 1.14196,1.87513 3.38368,2.66292 4.4884,4.53143 1.19575,2.01829 -0.70669,5.3904 -3.10895,4.80701 -0.30286,-0.0737 -0.39389,-0.55443 -0.091,-0.69594 1.76425,-0.81676 3.61953,-2.23841 1.76094,-4.39077 -0.8482,-0.98142 -2.09111,-1.72121 -3.03034,-2.63313"
       style="fill:#de9f4f;fill-opacity:1;fill-rule:nonzero;stroke:none"
       id="path19568"
       inkscape:connector-curvature="0" />
    <path
       d="m 158.2442,664.28918 c 0,0 -12.00053,10.12704 -26.25437,2.06297 0,0 12.37706,24.38005 26.25437,-2.06297"
       style="fill:#ffffff;fill-opacity:1;fill-rule:nonzero;stroke:none"
       id="path19570"
       inkscape:connector-curvature="0" />
    <path
       d="m 125.4517,779.19535 c 0,0 5.78676,3.62035 12.07749,3.62035 6.89811,0 13.75152,-3.62035 13.75152,-3.62035 0,0 22.99565,46.56804 36.46914,150.86716 0,0 -4.17147,10.45309 -52.65519,9.59001 C 100.91773,939.04435 92.434108,929.56274 92.434108,929.56274 100.41874,846.72335 125.4517,779.19535 125.4517,779.19535"
       style="fill:#385471;fill-opacity:1;fill-rule:nonzero;stroke:none"
       id="path19572"
       inkscape:connector-curvature="0" />
    <path
       d="m 131.59099,590.75511 c 0,0 3.6973,11.44444 -1.58469,21.83299 -6.75164,13.2782 -11.44444,10.91649 -15.31883,20.77708 0,0 3.32327,-3.15942 13.38164,-9.68433 13.02995,-8.45134 16.37556,-22.36093 9.15638,-32.75031 l -5.6345,-0.17543"
       style="fill:#792b19;fill-opacity:1;fill-rule:nonzero;stroke:none"
       id="path19574"
       inkscape:connector-curvature="0" />
    <path
       d="m 130.52764,693.88418 c 0,0 -1.63682,13.63403 8.17991,41.17435 l 0,58.082 c 0,0 -11.17964,1.09065 -19.36038,-3.8173 0,0 7.09009,-4.36262 4.36345,-14.17937 -2.72747,-9.81755 -20.45187,-47.99217 -13.63486,-64.0806 6.81702,-16.08841 19.08814,-16.08841 20.45188,-17.17908"
       style="fill:#293e4c;fill-opacity:1;fill-rule:nonzero;stroke:none"
       id="path19576"
       inkscape:connector-curvature="0" />
    <path
       d="m 130.52764,693.88418 c 0,0 -0.81841,15.27085 8.17991,41.17435 l 0,8.72608 c 0,0 -1.90906,-3.8173 -4.6357,-9.81591 -2.72664,-5.99944 -24.26834,-36.81255 -3.54421,-40.08452"
       style="fill:#385471;fill-opacity:1;fill-rule:nonzero;stroke:none"
       id="path19578"
       inkscape:connector-curvature="0" />
    <path
       d="m 138.58094,793.24397 23.03986,-2.5 c -17.10908,-9.03733 7.74755,-42.56151 2.14286,-79.18122 -17.75941,-47.42743 -18.60425,29.33781 -26.25415,23.92857 z"
       style="fill:#223440;fill-opacity:1;fill-rule:nonzero;stroke:none"
       id="path19590"
       inkscape:connector-curvature="0"
       sodipodi:nodetypes="ccccc" />
    <path
       d="m 146.76087,693.88418 c 0,0 0.81841,15.27085 -8.17993,41.17435 l 0,8.72608 c 0,0 1.90907,-3.8173 4.63571,-9.81591 2.72581,-5.99944 24.26834,-36.81255 3.54422,-40.08452"
       style="fill:#385471;fill-opacity:1;fill-rule:nonzero;stroke:none"
       id="path19592"
       inkscape:connector-curvature="0" />
    <path
       d="m 134.57415,690.95067 4.0912,7.55267 0.41872,14.4756 -2.62155,-13.53142 -8.81214,14.79089 4.72094,-22.65884 2.20283,-0.6289"
       style="fill:#ffffff;fill-opacity:1;fill-rule:nonzero;stroke:none"
       id="path19594"
       inkscape:connector-curvature="0" />
    <path
       d="m 143.39291,690.95067 -4.0912,7.55267 -0.20523,14.45243 2.40806,-13.50825 8.81213,14.79089 -4.72093,-22.65884 -2.20283,-0.6289"
       style="fill:#ffffff;fill-opacity:1;fill-rule:nonzero;stroke:none"
       id="path19596"
       inkscape:connector-curvature="0" />
    <path
       d="m 136.80263,749.09473 c 0,-0.98971 -0.80269,-1.79321 -1.79322,-1.79321 -0.98969,0 -1.79237,0.8035 -1.79237,1.79321 0,0.99053 0.80268,1.79239 1.79237,1.79239 0.99053,0 1.79322,-0.80186 1.79322,-1.79239"
       style="fill:#142329;fill-opacity:1;fill-rule:nonzero;stroke:none"
       id="path19598"
       inkscape:connector-curvature="0" />
    <path
       d="m 136.80263,762.08744 c 0,-0.9897 -0.80269,-1.79239 -1.79322,-1.79239 -0.98969,0 -1.79237,0.80269 -1.79237,1.79239 0,0.99053 0.80268,1.79321 1.79237,1.79321 0.99053,0 1.79322,-0.80268 1.79322,-1.79321"
       style="fill:#142329;fill-opacity:1;fill-rule:nonzero;stroke:none"
       id="path19600"
       inkscape:connector-curvature="0" />
    <path
       d="m 136.80263,775.0818 c 0,-0.99053 -0.80269,-1.79321 -1.79322,-1.79321 -0.98969,0 -1.79237,0.80268 -1.79237,1.79321 0,0.98971 0.80268,1.79239 1.79237,1.79239 0.99053,0 1.79322,-0.80268 1.79322,-1.79239"
       style="fill:#142329;fill-opacity:1;fill-rule:nonzero;stroke:none"
       id="path19602"
       inkscape:connector-curvature="0" />
    <path
       d="m 290.31953,761.29799 c 0,0 -4.58771,-3.25872 6.09542,-9.99878 10.68396,-6.7384 137.64529,-82.03175 137.64529,-82.03175 0,0 4.85417,-2.08946 0.76296,2.0936 -4.09203,4.18305 -133.91488,86.48871 -133.91488,86.48871 0,0 -8.07649,6.78639 -10.58879,3.44822"
       style="fill:#f1b36b;fill-opacity:1;fill-rule:nonzero;stroke:none"
       id="path19604"
       inkscape:connector-curvature="0" />
  </g>
</svg>
