<?xml version="1.0" encoding="UTF-8" standalone="no"?>
<!-- Created with Inkscape (http://www.inkscape.org/) -->

<svg
   xmlns:dc="http://purl.org/dc/elements/1.1/"
   xmlns:cc="http://creativecommons.org/ns#"
   xmlns:rdf="http://www.w3.org/1999/02/22-rdf-syntax-ns#"
   xmlns:svg="http://www.w3.org/2000/svg"
   xmlns="http://www.w3.org/2000/svg"
   xmlns:sodipodi="http://sodipodi.sourceforge.net/DTD/sodipodi-0.dtd"
   xmlns:inkscape="http://www.inkscape.org/namespaces/inkscape"
   width="300"
   height="300"
   viewBox="0 0 300 300"
   id="svg4330"
   version="1.1"
   inkscape:version="0.91 r13725"
   sodipodi:docname="telephone.svg">
  <defs
     id="defs4332" />
  <sodipodi:namedview
     id="base"
     pagecolor="#ffffff"
     bordercolor="#666666"
     borderopacity="1.0"
     inkscape:pageopacity="0.0"
     inkscape:pageshadow="2"
     inkscape:zoom="1.4"
     inkscape:cx="155.01894"
     inkscape:cy="209.98423"
     inkscape:document-units="px"
     inkscape:current-layer="layer2"
     showgrid="false"
     units="px"
     inkscape:window-width="1366"
     inkscape:window-height="708"
     inkscape:window-x="0"
     inkscape:window-y="0"
     inkscape:window-maximized="1" />
  <metadata
     id="metadata4335">
    <rdf:RDF>
      <cc:Work
         rdf:about="">
        <dc:format>image/svg+xml</dc:format>
        <dc:type
           rdf:resource="http://purl.org/dc/dcmitype/StillImage" />
        <dc:title></dc:title>
      </cc:Work>
    </rdf:RDF>
  </metadata>
  <g
     inkscape:label="telephone"
     inkscape:groupmode="layer"
     id="layer1"
     transform="translate(0,-752.36216)">
    <path
       d="m 282.07752,901.73545 c 0,72.32988 -58.52966,130.62445 -130.59518,130.62445 -72.190084,0 -130.514094,-58.29457 -130.514094,-130.62445 0,-71.98444 58.32401,-130.39658 130.514094,-130.39658 72.06552,0 130.59518,58.41214 130.59518,130.39658"
       style="fill:#f2f2f2;fill-opacity:1;fill-rule:nonzero;stroke:none"
       id="path132"
       inkscape:connector-curvature="0" />
    <path
       d="m 188.97697,970.87778 -15.06413,-2.4384 C 140.7815,958.86198 115.96371,938.26059 95.876433,910.91624 88.274446,900.53093 81.39282,890.00636 78.954402,877.20438 76.280958,861.88347 80.675985,848.89112 92.14536,838.32954 l 19.08135,-2.63819 3.44316,3.87209 c 4.16,9.81242 8.26301,19.74237 12.33899,29.5548 l -0.41131,5.73468 -8.98218,11.99407 -0.68158,8.14491 c 11.72966,19.45622 27.88021,33.65309 48.96694,42.12175 l 7.74829,-1.72746 10.61328,-13.2497 8.12317,-2.1035 c 7.08727,3.06711 13.96948,6.45622 20.998,9.81242 l 4.64769,2.1035 c 7.11666,3.67232 6.96976,3.67232 6.39688,11.56044 -1.14577,15.11525 -12.62513,22.86414 -26.24971,26.44832 l -9.18079,0.91661"
       style="fill:#1d3557;fill-opacity:1;fill-rule:evenodd;stroke:none"
       id="path134"
       inkscape:connector-curvature="0" />
    <path
       d="m 202.17498,852.76144 c 5.5408,4.73583 9.46752,11.04634 12.76496,17.70057 l 5.16476,16.87091 -0.47006,3.59005 -9.55566,0.52881 -1.72159,-1.23389 c -1.43955,-11.04633 -5.97088,-20.66015 -13.48473,-28.54828 -10.90649,-11.81781 -24.6192,-17.55368 -40.74038,-17.15707 l -1.86847,0 -0.4113,-10.52514 3.02011,-1.15164 c 6.74237,0 13.19096,0.71683 19.50733,2.5853 l 14.91725,6.74237 3.87209,2.92611 4.25401,3.61944 4.7887,4.07186"
       style="fill:#1d3557;fill-opacity:1;fill-rule:evenodd;stroke:none"
       id="path136"
       inkscape:connector-curvature="0" />
    <path
       d="m 186.53856,861.65608 c 8.80592,7.66016 14.20451,17.30397 16.01128,28.7469 l -1.5218,1.95073 -8.46807,0.76972 -1.28678,-1.25741 c -1.43954,-10.12853 -6.51439,-18.02371 -14.77739,-23.76017 -6.16949,-4.30102 -13.10987,-6.45564 -20.66015,-6.22825 l -1.72159,-1.46305 -0.71684,-8.6079 1.15164,-1.20452 c 12.0452,-0.47005 22.65848,3.35502 31.98617,11.04632"
       style="fill:#1d3557;fill-opacity:1;fill-rule:evenodd;stroke:none"
       id="path138"
       inkscape:connector-curvature="0" />
    <path
       d="m 174.63261,894.50833 c -1.29265,-9.37879 -8.32117,-15.83502 -17.6418,-16.07005 l -1.29265,-0.99887 -0.85786,-8.69605 0.99887,-1.11638 c 13.91779,-1.03412 28.17401,11.04633 29.69405,25.01582 l -0.99887,0.94598 -9.90056,0.91662"
       style="fill:#1d3557;fill-opacity:1;fill-rule:evenodd;stroke:none"
       id="path140"
       inkscape:connector-curvature="0" />
  </g>
  <g
     inkscape:groupmode="layer"
     id="layer2"
     inkscape:label="gmail"
     style="display:none">
    <path
       d="m 282.78127,149.0408 c 0,72.43196 -58.49396,130.80824 -130.69821,130.80824 -72.22424,0 -130.691129,-58.37628 -130.691129,-130.80824 0,-72.167179 58.466889,-130.580532 130.691129,-130.580532 72.20425,0 130.69821,58.413353 130.69821,130.580532"
       style="fill:#f2f2f2;fill-opacity:1;fill-rule:evenodd;stroke:none"
       id="path164"
       inkscape:connector-curvature="0" />
    <path
       d="m 179.78198,106.69075 c 17.0418,20.22623 12.61409,39.70931 1.43567,53.12481 -6.60476,7.89926 -14.90885,13.24664 -24.27145,17.38015 -13.3349,5.5486 -27.18406,7.41383 -41.40155,6.26646 l -8.62123,3.58923 c -6.31999,7.89925 -13.04363,15.37193 -19.507794,22.90344 l -2.641905,-2.44775 c -0.05879,-8.47295 -0.23536,-16.62933 0.11775,-24.99226 l -5.313262,-9.10548 C 72.855172,170.24966 67.137686,165.16471 62.397548,159.39074 49.009106,143.04089 49.87052,122.12329 64.38045,106.69252 75.95838,94.453807 90.640123,88.223842 107.01647,85.781983 c 27.20993,-3.88344 52.06214,1.435686 72.74439,20.910537"
       style="fill:#1d3557;fill-opacity:1;fill-rule:evenodd;stroke:none"
       id="path166"
       inkscape:connector-curvature="0" />
    <path
       d="m 249.33842,136.77269 c 5.37797,19.68193 -0.41189,33.9065 -18.81407,44.33588 l -4.80134,8.53179 c 0.23535,7.46502 0,14.73939 0,24.04316 -6.60476,-7.4356 -12.32696,-13.61379 -17.66669,-20.16738 l -8.5318,-3.58923 c -11.98098,0.94733 -23.73426,-0.91791 -34.70789,-6.03109 l -4.16587,-3.1656 c 16.83528,-7.89926 30.91273,-18.67401 34.75969,-38.15769 2.41244,-11.74563 -0.29421,-22.80755 -8.01695,-32.52377 8.21525,-2.86552 16.43811,-1.14738 24.50685,0.52955 16.00445,3.55981 29.19165,11.34906 37.4369,26.19848"
       style="fill:#1d3557;fill-opacity:1;fill-rule:evenodd;stroke:none"
       id="path168"
       inkscape:connector-curvature="0" />
  </g>
</svg>
