<?xml version="1.0" encoding="UTF-8" standalone="no"?>
<!-- Created with Inkscape (http://www.inkscape.org/) -->

<svg
   xmlns:dc="http://purl.org/dc/elements/1.1/"
   xmlns:cc="http://creativecommons.org/ns#"
   xmlns:rdf="http://www.w3.org/1999/02/22-rdf-syntax-ns#"
   xmlns:svg="http://www.w3.org/2000/svg"
   xmlns="http://www.w3.org/2000/svg"
   xmlns:sodipodi="http://sodipodi.sourceforge.net/DTD/sodipodi-0.dtd"
   xmlns:inkscape="http://www.inkscape.org/namespaces/inkscape"
   width="300"
   height="300"
   viewBox="0 0 300 300"
   id="svg4330"
   version="1.1"
   inkscape:version="0.91 r13725"
   sodipodi:docname="time.svg">
  <defs
     id="defs4332" />
  <sodipodi:namedview
     id="base"
     pagecolor="#ffffff"
     bordercolor="#666666"
     borderopacity="1.0"
     inkscape:pageopacity="0.0"
     inkscape:pageshadow="2"
     inkscape:zoom="0.7"
     inkscape:cx="56.940327"
     inkscape:cy="182.58953"
     inkscape:document-units="px"
     inkscape:current-layer="layer4"
     showgrid="false"
     units="px"
     inkscape:window-width="1366"
     inkscape:window-height="708"
     inkscape:window-x="0"
     inkscape:window-y="0"
     inkscape:window-maximized="1"
     showguides="true"
     inkscape:guide-bbox="true">
    <sodipodi:guide
       position="20.892857,140.08929"
       orientation="1,0"
       id="guide5007" />
    <sodipodi:guide
       position="282.00893,146.16071"
       orientation="1,0"
       id="guide5009" />
  </sodipodi:namedview>
  <metadata
     id="metadata4335">
    <rdf:RDF>
      <cc:Work
         rdf:about="">
        <dc:format>image/svg+xml</dc:format>
        <dc:type
           rdf:resource="http://purl.org/dc/dcmitype/StillImage" />
        <dc:title></dc:title>
      </cc:Work>
    </rdf:RDF>
  </metadata>
  <g
     inkscape:label="telephone"
     inkscape:groupmode="layer"
     id="layer1"
     transform="translate(0,-752.36216)"
     style="display:inline">
    <path
       d="m 282.07752,901.73545 c 0,72.32988 -58.52966,130.62445 -130.59518,130.62445 -72.190084,0 -130.514094,-58.29457 -130.514094,-130.62445 0,-71.98444 58.32401,-130.39658 130.514094,-130.39658 72.06552,0 130.59518,58.41214 130.59518,130.39658"
       style="fill:#f2f2f2;fill-opacity:1;fill-rule:nonzero;stroke:none"
       id="path132"
       inkscape:connector-curvature="0" />
  </g>
  <g
     inkscape:groupmode="layer"
     id="layer3"
     inkscape:label="skype"
     style="display:none">
    <path
       d="m 281.86466,149.41398 c 0,72.1039 -58.57116,130.29286 -130.52063,130.29286 -72.044577,0 -130.351551,-58.18896 -130.351551,-130.29286 0,-72.154954 58.306974,-130.549394 130.351551,-130.549394 71.94947,0 130.52063,58.39444 130.52063,130.549394"
       style="fill:#f2f2f2;fill-opacity:1;fill-rule:nonzero;stroke:none"
       id="path198"
       inkscape:connector-curvature="0" />
    <path
       d="m 165.9629,77.890179 0.0586,0.293537 -0.0586,-0.293537 z m -0.5284,0 0.0586,0 -0.0586,0 z m 63.34843,102.082531 0,-2.03137 -4.78489,-15.9692 -0.29355,-0.29355 -0.41099,-0.71042 0,-0.71625 0.58712,-2.14879 0.11743,-0.41099 0,-0.76911 0.11743,-0.41094 0,-0.29356 0.29356,-1.20358 0,-1.80239 0.29355,-4.36218 0,-0.29357 -0.29355,-5.95968 -0.41097,-3.92771 -0.11743,-0.65755 -0.11742,-0.46969 -0.11744,-0.52839 -0.63407,-2.63608 -1.14485,-4.79076 -1.95506,-5.52466 -1.49125,-3.30538 -1.14485,-2.57739 -6.82506,-11.03753 -2.26036,-2.92965 -3.81615,-4.585273 -0.41099,-0.234848 -1.09201,-1.291625 -1.20355,-1.144837 -0.41098,-0.410984 -4.82011,-4.103854 -3.07056,-2.407126 -0.29355,-0.234822 c -6.45109,-4.532432 -13.52567,-7.888907 -21.06994,-10.406399 l -5.58922,-1.150727 -0.41099,-0.29355 -1.00394,0 0.11742,0 -0.11742,0 -2.14881,-0.41098 -0.58708,0 -0.11743,-0.234848 -1.4384,0 -0.7104,-0.293537 -1.86112,0 -0.11742,-0.176028 -2.6361,0 -1.57931,-0.293563 -4.52658,0 -4.01577,0.293563 -1.14485,0 0,0.176028 -2.01376,0 -0.71627,0.293537 -0.0511,0 -2.23688,0.234848 -2.58323,-0.46967 -17.19449,-4.784915 0,-0.234821 -5.74188,0 -0.85716,0.234821 -3.29363,0.176041 -13.188127,4.872956 -8.79889,6.737009 -3.234951,3.352357 -5.307392,8.116691 -3.352371,8.079716 -1.520599,9.92206 -0.117429,0 0,5.78883 0.117429,0 2.348412,11.66868 2.66546,6.01778 0.176029,1.43255 -0.587087,4.38565 -0.11743,0.17603 0,10.4064 0.41098,4.53243 0,0.41099 0.11743,0.35227 0.176029,0.66341 0,0.63407 0.05864,0.5871 0.117431,0.41098 5.395484,17.8262 2.665448,5.44831 0.05865,0.41099 5.295665,8.05798 4.16256,5.13129 0.293534,0.35226 0.469691,0.63407 0.657551,0.79846 0.857187,0.94524 0.293532,0.17604 10.465134,8.65978 5.01972,3.15861 1.80239,0.94523 1.34449,0.65168 0.29353,0.29357 7.8308,3.08816 5.30741,1.7261 2.06073,0.52838 0.35228,0 0.63405,0.23483 1.28577,0.23484 0.41096,0 0.11743,0.11744 0.29357,0 1.1507,0.23482 1.29165,0 0.58709,0.23486 0.85717,0 0.66342,0.35226 2.06073,0 0.72215,0.17603 1.71434,0 2.23686,0.17603 0.46968,0 11.23481,-0.35225 4.52655,-0.85716 0.35227,0.23483 c 6.1646,3.41107 12.41723,5.36613 19.29398,6.07651 l 5.44244,0 3.35236,-0.23484 6.11349,-1.49125 7.02294,-3.15274 8.45429,-6.15753 3.66937,-3.87489 5.78886,-9.08542 3.44042,-8.40261 1.62627,-9.88565 0,-4.50895"
       style="opacity:1;fill:#1d3557;fill-opacity:1;fill-rule:evenodd;stroke:none"
       id="path200"
       inkscape:connector-curvature="0" />
    <path
       d="m 137.2976,104.8382 2.43646,-0.68691 1.28575,0 0,-0.29356 1.29163,0 0.5871,-0.29355 2.09009,0 0.23485,-0.17604 5.36024,0 6.05479,0.46969 16.19643,5.58922 4.92578,3.81619 4.01578,4.87294 1.37972,3.01183 0.0586,0.52842 0,0.23482 0.11743,0.23484 -0.29353,4.15082 -9.60618,5.50117 -2.86508,-1.65564 -2.95313,-2.64196 -5.07844,-4.7849 -1.14484,-0.58709 -0.11743,0 -3.14686,-1.66738 -6.1646,-1.66151 -5.01971,0 -8.16778,2.37778 -4.01579,5.30741 0.85717,5.07259 4.16255,3.38171 6.50216,2.57737 0.94526,0.46967 4.16256,1.23292 10.89076,2.3484 5.36612,1.74959 0.52838,0 3.95708,1.54994 11.03755,7.74274 1.05678,0.94521 2.6713,4.15672 2.06075,5.93736 0.0586,0.52838 0,4.07451 -0.65755,3.29364 -9.17351,14.70693 -0.29354,0.29354 -0.23483,0.23484 -0.35228,0.23486 -1.15071,0.99807 -1.34447,0.86305 -0.52839,0.29354 -3.29365,1.91396 -0.71039,0.52838 -1.57931,0.63408 -5.58923,2.03137 -3.58132,0.69277 -2.43648,0.41099 -9.03376,0 -11.46318,-1.91395 -0.29356,0 -1.15072,-0.17603 -1.86112,-0.73975 -5.10194,-1.86699 -11.72736,-8.65978 -0.0586,0 -1.72608,-2.43646 -1.71435,-4.30348 -0.17603,-0.71039 -0.0586,-0.41098 0,-2.23687 0.0586,-0.41095 1.77305,-3.64004 4.43851,-2.38365 1.15072,0 0.79845,-0.17603 2.26622,0.17603 4.95517,2.38365 1.00392,0.99806 1.37971,1.20356 2.77111,3.09993 7.16971,5.16063 0.85718,0.63406 4.87296,1.37969 0.52837,0 0.46969,0.23484 1.71433,0 0.23485,0.23485 2.82984,0 0.23483,-0.23485 1.56757,0 8.02864,-3.03532 4.01578,-6.50979 -2.9179,-7.44859 -3.61654,-2.43646 -7.30944,-2.64197 -8.65216,-2.17815 -0.71625,-0.41098 -5.3074,-1.4384 -12.60806,-4.87295 -2.43646,-1.34447 -3.35237,-2.58326 -5.30742,-10.4064 0,-0.46968 -0.23484,-0.46967 0,-1.23292 -0.11743,-3.35237 0.11743,-0.5871 0,-1.37382 0.23484,-0.35227 0,-0.79844 0.46968,-1.86113 -0.11743,-0.29356 0.71038,-2.20751 4.87296,-7.91119 9.46704,-6.65601 3.43454,-1.43252 0.11743,-0.35226 3.72812,-0.85717"
       style="fill:#f2f2f2;fill-opacity:1;fill-rule:evenodd;stroke:none"
       id="path202"
       inkscape:connector-curvature="0" />
  </g>
  <g
     inkscape:groupmode="layer"
     id="layer4"
     inkscape:label="time">
    <path
       d="m 151.01782,52.362645 c 3.83835,0 7.24453,1.847746 9.37771,4.702098 -3.01761,-0.675667 -6.15575,-1.034185 -9.37771,-1.034185 -3.22225,0 -6.3604,0.358518 -9.37772,1.034185 2.13289,-2.854352 5.54047,-4.702098 9.37772,-4.702098 z m 0,7.399256 c -12.4869,0 -23.60426,5.865903 -30.74759,14.991564 9.46376,-3.954732 19.84975,-6.14169 30.74759,-6.14169 10.89755,0 21.28382,2.186958 30.74869,6.14169 -7.14443,-9.125661 -18.26209,-14.991564 -30.74869,-14.991564 l 0,0 z m 2.10698,27.56175 0,11.047861 -4.2239,0 0,-11.047861 c -10.08979,0.341972 -19.55797,3.130136 -27.83476,7.78811 l 3.17922,5.504629 -1.25731,0.72531 -3.17782,-5.501869 c -8.7917,5.226089 -16.16364,12.597759 -21.391675,21.389719 l 5.506015,3.17701 -0.72614,1.25757 -5.507104,-3.17977 c -4.661289,8.27348 -7.446972,17.74387 -7.791699,27.83477 l 11.477273,0 0,4.22499 -11.478377,0 c 0.340316,10.0909 3.125172,19.56129 7.783142,27.84029 l 5.516765,-3.1853 0.72614,1.25482 -5.51676,3.18529 c 5.22691,8.79747 12.59887,16.1719 21.39249,21.4035 l 3.18775,-5.52392 1.25731,0.7253 -3.18999,5.52393 c 8.2779,4.6635 17.75133,7.44891 27.84553,7.79362 l 0,-11.07267 4.2239,0 0,11.07267 c 10.0942,-0.3392 19.5679,-3.12737 27.84661,-7.79085 l -3.1908,-5.5267 1.25591,-0.7253 3.1911,5.52668 c 8.79582,-5.22884 16.16886,-12.60327 21.398,-21.40075 l -5.52449,-3.1908 0.72502,-1.25482 5.52643,3.18805 c 4.65933,-8.279 7.44393,-17.74938 7.7845,-27.84304 l -10.64245,0 0,-4.22499 10.64135,0 c -0.34473,-10.0909 -3.13371,-19.56405 -7.79418,-27.84029 l -5.51565,3.18529 -0.72502,-1.25757 5.51372,-3.18252 c -5.23022,-8.79198 -12.60329,-16.16364 -21.398,-21.389727 l -3.18033,5.507387 -1.25591,-0.72531 3.18006,-5.507393 c -8.27679,-4.657968 -17.74608,-7.443374 -27.83587,-7.785346 l 0,0 z m 0.94068,56.513419 -2.10283,-43.38339 -1.88967,0 -2.10285,43.38339 c -1.49198,0.98731 -2.47654,2.68062 -2.47654,4.60558 0,3.05017 2.47433,5.52394 5.52423,5.52394 2.71562,0 4.97593,-1.95807 5.43814,-4.5449 l 43.9259,0 0,-1.95807 -43.9259,0 c -0.27163,-1.51128 -1.15717,-2.81022 -2.39048,-3.62655 l 0,0 z m 49.40927,58.11299 5.24291,5.24262 c 3.32897,3.32871 3.32897,8.77267 0,12.10135 l 0,0 c -3.3287,3.32871 -8.77431,3.32871 -12.103,0 l -6.75557,-6.75391 c -11.3267,6.87802 -24.62136,10.83827 -38.84127,10.83827 -14.22022,0 -27.51706,-3.96025 -38.84128,-10.83827 l -6.75667,6.75391 c -3.32759,3.32871 -8.774306,3.32871 -12.10219,0 l 0,0 c -3.3287,-3.32868 -3.3287,-8.77264 0,-12.10135 l 5.243175,-5.24262 C 84.690913,188.34843 76.08235,169.40215 76.08235,148.44265 c 0,-41.38398 33.55064,-74.935722 74.93547,-74.935722 41.38562,0 74.93544,33.551742 74.93544,74.935722 0,20.9595 -8.60855,39.90578 -22.47851,53.50741 l 0,0"
       style="fill:#1d3557;fill-opacity:1;fill-rule:evenodd;stroke:none"
       id="path20"
       inkscape:connector-curvature="0" />
  </g>
</svg>
